<svg xmlns="http://www.w3.org/2000/svg" xmlns:xlink="http://www.w3.org/1999/xlink" width="286" zoomAndPan="magnify" viewBox="0 0 214.5 110.999996" height="148" preserveAspectRatio="xMidYMid meet" version="1.2"><defs><clipPath id="1cb8cb0196"><path d="M 0 0.128906 L 214 0.128906 L 214 110.871094 L 0 110.871094 Z M 0 0.128906 "/></clipPath><clipPath id="076363dbb6"><path d="M 0 0.128906 L 214 0.128906 L 214 54.507812 L 0 54.507812 Z M 0 0.128906 "/></clipPath><clipPath id="d7d7dca4aa"><path d="M 34.738281 22.390625 L 178.503906 22.390625 L 178.503906 86.621094 L 34.738281 86.621094 Z M 34.738281 22.390625 "/></clipPath><clipPath id="5d73bd7ac4"><path d="M 38.480469 22.390625 L 174.558594 22.390625 C 176.625 22.390625 178.300781 24.066406 178.300781 26.132812 L 178.300781 82.878906 C 178.300781 84.945312 176.625 86.621094 174.558594 86.621094 L 38.480469 86.621094 C 36.414062 86.621094 34.738281 84.945312 34.738281 82.878906 L 34.738281 26.132812 C 34.738281 24.066406 36.414062 22.390625 38.480469 22.390625 Z M 38.480469 22.390625 "/></clipPath><clipPath id="9598effba5"><path d="M 34.75 22.390625 L 178.40625 22.390625 L 178.40625 86.617188 L 34.75 86.617188 Z M 34.75 22.390625 "/></clipPath><clipPath id="b63fec429b"><path d="M 38.488281 22.390625 L 174.550781 22.390625 C 176.617188 22.390625 178.292969 24.066406 178.292969 26.132812 L 178.292969 82.871094 C 178.292969 84.9375 176.617188 86.613281 174.550781 86.613281 L 38.488281 86.613281 C 36.421875 86.613281 34.75 84.9375 34.75 82.871094 L 34.75 26.132812 C 34.75 24.066406 36.421875 22.390625 38.488281 22.390625 Z M 38.488281 22.390625 "/></clipPath><clipPath id="a3e0f8bfe3"><path d="M 96.832031 53.25 L 120.777344 53.25 L 120.777344 77.195312 L 96.832031 77.195312 Z M 96.832031 53.25 "/></clipPath><clipPath id="6cf36e64df"><path d="M 127.324219 52.261719 L 144.535156 52.261719 L 144.535156 76.207031 L 127.324219 76.207031 Z M 127.324219 52.261719 "/></clipPath><clipPath id="3293762508"><path d="M 69.257812 54.082031 L 90 54.082031 L 90 77 L 69.257812 77 Z M 69.257812 54.082031 "/></clipPath><clipPath id="53769f05a1"><path d="M 69.257812 54.082031 L 90.210938 54.082031 L 90.210938 77 L 69.257812 77 Z M 69.257812 54.082031 "/></clipPath></defs><g id="b048a34f09"><g clip-rule="nonzero" clip-path="url(#1cb8cb0196)"><path style=" stroke:none;fill-rule:nonzero;fill:#ffffff;fill-opacity:1;" d="M 0 0.128906 L 214 0.128906 L 214 110.871094 L 0 110.871094 Z M 0 0.128906 "/><path style=" stroke:none;fill-rule:nonzero;fill:#ffffff;fill-opacity:1;" d="M 0 0.128906 L 214 0.128906 L 214 110.871094 L 0 110.871094 Z M 0 0.128906 "/></g><g clip-rule="nonzero" clip-path="url(#076363dbb6)"><path style=" stroke:none;fill-rule:nonzero;fill:#f6fbff;fill-opacity:1;" d="M 0 0.128906 L 213.898438 0.128906 L 213.898438 54.507812 L 0 54.507812 Z M 0 0.128906 "/></g><g clip-rule="nonzero" clip-path="url(#d7d7dca4aa)"><g clip-rule="nonzero" clip-path="url(#5d73bd7ac4)"><path style=" stroke:none;fill-rule:nonzero;fill:#f6fbff;fill-opacity:1;" d="M 34.738281 22.390625 L 178.253906 22.390625 L 178.253906 86.621094 L 34.738281 86.621094 Z M 34.738281 22.390625 "/></g></g><g clip-rule="nonzero" clip-path="url(#9598effba5)"><g clip-rule="nonzero" clip-path="url(#b63fec429b)"><path style="fill:none;stroke-width:2;stroke-linecap:butt;stroke-linejoin:miter;stroke:#000000;stroke-opacity:1;stroke-miterlimit:4;" d="M 4.998538 -0.00195709 L 186.838083 -0.00195709 C 189.599714 -0.00195709 191.839297 2.237626 191.839297 4.999257 L 191.839297 80.82664 C 191.839297 83.58827 189.599714 85.827854 186.838083 85.827854 L 4.998538 85.827854 C 2.236907 85.827854 0.00254446 83.58827 0.00254446 80.82664 L 0.00254446 4.999257 C 0.00254446 2.237626 2.236907 -0.00195709 4.998538 -0.00195709 Z M 4.998538 -0.00195709 " transform="matrix(0.748256,0,0,0.748256,34.748096,22.392089)"/></g></g><path style=" stroke:none;fill-rule:nonzero;fill:#000000;fill-opacity:1;" d="M 104.578125 64.453125 C 104.621094 64.613281 104.789062 64.703125 104.949219 64.65625 C 105.105469 64.609375 105.195312 64.445312 105.148438 64.285156 C 105.105469 64.128906 104.9375 64.039062 104.78125 64.085938 C 104.621094 64.132812 104.527344 64.296875 104.578125 64.453125 Z M 104.578125 64.453125 "/><path style=" stroke:none;fill-rule:nonzero;fill:#000000;fill-opacity:1;" d="M 104.6875 62.722656 C 104.644531 62.5625 104.476562 62.472656 104.316406 62.519531 C 104.160156 62.566406 104.066406 62.730469 104.117188 62.886719 C 104.160156 63.046875 104.328125 63.136719 104.484375 63.089844 C 104.644531 63.042969 104.734375 62.878906 104.6875 62.722656 Z M 104.6875 62.722656 "/><path style=" stroke:none;fill-rule:nonzero;fill:#000000;fill-opacity:1;" d="M 104.226562 61.152344 C 104.183594 60.996094 104.015625 60.90625 103.855469 60.953125 C 103.699219 61 103.605469 61.164062 103.652344 61.324219 C 103.699219 61.480469 103.867188 61.570312 104.023438 61.523438 C 104.183594 61.476562 104.273438 61.3125 104.226562 61.152344 Z M 104.226562 61.152344 "/><g clip-rule="nonzero" clip-path="url(#a3e0f8bfe3)"><path style=" stroke:none;fill-rule:nonzero;fill:#000000;fill-opacity:1;" d="M 120.640625 58.132812 L 115.863281 55.457031 L 112 53.292969 C 111.953125 53.269531 111.902344 53.265625 111.851562 53.277344 C 111.804688 53.292969 111.761719 53.328125 111.738281 53.371094 L 109.332031 57.90625 C 109.058594 57.6875 108.726562 57.554688 108.375 57.527344 L 105.21875 57.277344 C 104.960938 56.839844 104.425781 56.617188 104.402344 56.609375 C 104.394531 56.605469 104.386719 56.605469 104.378906 56.605469 C 104.367188 56.601562 104.355469 56.597656 104.339844 56.597656 C 104.328125 56.597656 104.316406 56.597656 104.304688 56.601562 C 104.296875 56.601562 104.285156 56.601562 104.277344 56.601562 L 101.140625 57.519531 C 101.132812 57.519531 101.128906 57.527344 101.121094 57.53125 C 101.109375 57.535156 101.097656 57.539062 101.085938 57.546875 C 101.074219 57.554688 101.066406 57.566406 101.058594 57.574219 C 101.050781 57.582031 101.046875 57.585938 101.039062 57.589844 C 101.023438 57.613281 100.695312 58.085938 100.714844 58.59375 L 98.195312 60.503906 C 97.8125 60.796875 97.558594 61.238281 97.507812 61.71875 L 96.941406 67.144531 C 96.941406 67.148438 96.941406 67.148438 96.941406 67.152344 L 96.835938 68.164062 C 96.828125 68.238281 96.859375 68.308594 96.921875 68.34375 C 97.558594 68.75 98.292969 68.957031 99.113281 68.957031 C 99.597656 68.957031 100.113281 68.878906 100.660156 68.738281 L 102.746094 76.527344 C 102.765625 76.609375 102.839844 76.664062 102.925781 76.667969 C 102.925781 76.667969 102.933594 76.667969 102.949219 76.667969 C 103.023438 76.667969 103.277344 76.664062 103.695312 76.628906 C 103.746094 76.625 103.792969 76.597656 103.824219 76.558594 C 103.859375 76.519531 103.875 76.46875 103.867188 76.417969 L 103.726562 75.203125 L 104.441406 76.433594 C 104.480469 76.5 104.554688 76.535156 104.632812 76.523438 C 105.695312 76.375 106.835938 76.128906 108.023438 75.792969 L 110.539062 77.152344 C 110.570312 77.167969 110.597656 77.175781 110.632812 77.175781 C 110.648438 77.175781 110.667969 77.175781 110.6875 77.167969 C 110.734375 77.15625 110.773438 77.121094 110.796875 77.078125 L 112.375 74.105469 C 112.828125 73.867188 113.152344 73.679688 113.15625 73.679688 C 113.230469 73.632812 113.265625 73.542969 113.238281 73.457031 L 113.042969 72.847656 L 113.9375 71.167969 L 115.367188 72.179688 C 115.398438 72.203125 115.4375 72.214844 115.476562 72.214844 C 115.488281 72.214844 115.5 72.214844 115.511719 72.210938 C 115.5625 72.203125 115.605469 72.171875 115.636719 72.128906 L 117.621094 69.105469 C 117.675781 69.019531 117.65625 68.90625 117.574219 68.847656 L 115.839844 67.574219 L 120.71875 58.386719 C 120.765625 58.296875 120.734375 58.183594 120.640625 58.132812 Z M 111.980469 53.722656 L 113.109375 54.351562 L 112.433594 55.511719 C 112.410156 55.554688 112.402344 55.605469 112.414062 55.65625 C 112.429688 55.703125 112.460938 55.746094 112.503906 55.769531 L 113.292969 56.222656 C 113.324219 56.238281 113.355469 56.246094 113.386719 56.246094 C 113.453125 56.246094 113.515625 56.214844 113.550781 56.152344 L 114.230469 54.980469 L 115.519531 55.699219 L 113.367188 59.753906 C 113.269531 59.941406 113.238281 60.152344 113.269531 60.359375 L 112.222656 61.433594 L 109.613281 58.183594 L 110.296875 56.898438 L 112.007812 55.960938 C 112.101562 55.910156 112.136719 55.796875 112.085938 55.703125 C 112.035156 55.613281 111.917969 55.578125 111.828125 55.628906 L 110.617188 56.289062 Z M 110.769531 65.78125 C 111.066406 65.6875 111.34375 65.578125 111.601562 65.453125 L 111.070312 66.71875 Z M 112.921875 62.300781 L 112.464844 61.730469 L 113.414062 60.753906 C 113.445312 60.800781 113.480469 60.84375 113.515625 60.882812 Z M 104.925781 57.535156 C 105.148438 58.03125 105.289062 60.121094 104.996094 60.324219 C 104.960938 60.347656 104.828125 60.34375 104.558594 60.171875 C 104.1875 59.933594 103.777344 59.523438 103.613281 59.347656 L 104.4375 57.050781 C 104.597656 57.148438 104.828125 57.3125 104.925781 57.535156 Z M 103.304688 59.082031 L 101.605469 57.777344 L 104.027344 57.070312 Z M 101.101562 58.652344 C 101.0625 58.410156 101.164062 58.148438 101.25 57.984375 L 103.1875 59.472656 C 103.136719 59.738281 103.019531 60.285156 102.84375 60.671875 C 102.710938 60.960938 102.601562 61.035156 102.558594 61.035156 C 102.558594 61.035156 102.558594 61.035156 102.554688 61.035156 C 102.199219 61.023438 101.183594 59.191406 101.101562 58.652344 Z M 103.511719 59.785156 C 103.710938 59.984375 104.003906 60.253906 104.292969 60.449219 L 105.589844 64.855469 L 104.511719 65.167969 L 103.214844 60.761719 C 103.347656 60.449219 103.445312 60.074219 103.511719 59.785156 Z M 110.550781 76.730469 L 108.539062 75.640625 C 109.734375 75.273438 110.605469 74.910156 111.300781 74.601562 C 111.371094 74.570312 111.414062 74.503906 111.414062 74.429688 L 111.429688 72.746094 L 112.023438 73.960938 Z M 112.320312 73.707031 L 111.421875 71.855469 C 111.382812 71.777344 111.292969 71.734375 111.207031 71.753906 C 111.121094 71.773438 111.0625 71.847656 111.058594 71.9375 L 111.035156 74.304688 C 110.304688 74.625 109.390625 75 108.105469 75.375 L 108.058594 75.386719 C 108.035156 75.394531 108.011719 75.402344 107.996094 75.40625 C 107.992188 75.40625 107.992188 75.40625 107.992188 75.40625 C 106.84375 75.738281 105.738281 75.980469 104.703125 76.132812 L 103.597656 74.226562 C 103.550781 74.152344 103.457031 74.117188 103.371094 74.144531 C 103.285156 74.171875 103.234375 74.257812 103.242188 74.34375 L 103.46875 76.265625 C 103.296875 76.277344 103.164062 76.28125 103.074219 76.285156 L 99.5 62.945312 C 99.472656 62.847656 99.367188 62.785156 99.269531 62.8125 C 99.167969 62.839844 99.105469 62.945312 99.132812 63.046875 L 100.304688 67.417969 C 99.21875 67.617188 98.21875 67.496094 97.332031 67.054688 L 97.886719 61.761719 C 97.925781 61.382812 98.125 61.035156 98.425781 60.804688 L 100.8125 58.996094 C 101.082031 59.75 101.9375 61.394531 102.542969 61.414062 C 102.546875 61.417969 102.554688 61.417969 102.558594 61.417969 C 102.722656 61.417969 102.851562 61.324219 102.953125 61.210938 L 104.203125 65.457031 C 104.226562 65.539062 104.300781 65.59375 104.382812 65.59375 C 104.402344 65.59375 104.417969 65.589844 104.4375 65.585938 L 105.878906 65.164062 C 105.929688 65.152344 105.96875 65.117188 105.992188 65.074219 C 106.015625 65.03125 106.023438 64.976562 106.007812 64.929688 L 104.757812 60.683594 C 104.820312 60.703125 104.882812 60.714844 104.949219 60.714844 C 105.039062 60.714844 105.128906 60.691406 105.210938 60.636719 C 105.710938 60.289062 105.539062 58.449219 105.355469 57.667969 L 108.34375 57.90625 C 108.6875 57.933594 109.007812 58.085938 109.25 58.34375 C 109.273438 58.367188 109.292969 58.390625 109.316406 58.417969 L 112.65625 62.574219 C 112.148438 63.425781 111.375 64.0625 110.351562 64.480469 L 108.964844 60.167969 C 108.933594 60.070312 108.828125 60.015625 108.726562 60.046875 C 108.625 60.078125 108.570312 60.1875 108.605469 60.285156 L 110.054688 64.796875 C 110.054688 64.796875 110.054688 64.800781 110.054688 64.800781 L 110.347656 65.710938 C 110.351562 65.714844 110.347656 65.714844 110.351562 65.714844 C 110.351562 65.71875 110.351562 65.722656 110.351562 65.722656 L 112.65625 72.882812 L 112.65625 72.886719 L 112.832031 73.425781 C 112.71875 73.488281 112.539062 73.589844 112.320312 73.707031 Z M 117.207031 69.046875 L 115.425781 71.757812 L 114.113281 70.828125 L 115.660156 67.914062 Z M 119 60.8125 L 118.808594 59.542969 C 118.792969 59.441406 118.695312 59.367188 118.59375 59.382812 C 118.488281 59.398438 118.417969 59.496094 118.433594 59.601562 L 118.703125 61.375 L 112.882812 72.34375 L 111.25 67.273438 L 112.132812 65.167969 C 112.847656 64.71875 113.378906 64.140625 113.703125 63.441406 C 113.730469 63.375 113.722656 63.296875 113.679688 63.242188 L 113.191406 62.636719 L 113.832031 61.113281 L 113.9375 61.175781 C 113.964844 61.191406 114 61.199219 114.03125 61.199219 C 114.097656 61.199219 114.160156 61.164062 114.195312 61.101562 C 114.246094 61.011719 114.214844 60.894531 114.125 60.84375 L 113.941406 60.742188 C 113.917969 60.726562 113.890625 60.710938 113.859375 60.683594 C 113.761719 60.609375 113.6875 60.496094 113.652344 60.375 C 113.613281 60.226562 113.628906 60.066406 113.703125 59.933594 L 115.851562 55.886719 L 118.046875 57.113281 L 117.390625 58.242188 C 117.367188 58.285156 117.359375 58.339844 117.371094 58.386719 C 117.386719 58.4375 117.417969 58.476562 117.460938 58.503906 L 118.25 58.953125 C 118.28125 58.972656 118.3125 58.980469 118.34375 58.980469 C 118.410156 58.980469 118.472656 58.945312 118.507812 58.886719 L 119.171875 57.746094 L 120.292969 58.375 Z M 119 60.8125 "/></g><path style=" stroke:none;fill-rule:nonzero;fill:#000000;fill-opacity:1;" d="M 116.851562 57.101562 C 116.851562 57.265625 116.792969 57.402344 116.679688 57.519531 C 116.5625 57.632812 116.421875 57.691406 116.261719 57.691406 C 116.097656 57.691406 115.957031 57.632812 115.839844 57.519531 C 115.726562 57.402344 115.667969 57.265625 115.667969 57.101562 C 115.667969 56.9375 115.726562 56.800781 115.839844 56.683594 C 115.957031 56.570312 116.097656 56.511719 116.261719 56.511719 C 116.421875 56.511719 116.5625 56.570312 116.679688 56.683594 C 116.792969 56.800781 116.851562 56.9375 116.851562 57.101562 Z M 116.851562 57.101562 "/><g clip-rule="nonzero" clip-path="url(#6cf36e64df)"><path style=" stroke:none;fill-rule:nonzero;fill:#4675bd;fill-opacity:1;" d="M 144.453125 63.460938 C 144.207031 62.519531 144 61.570312 143.765625 60.625 C 143.664062 60.214844 143.539062 59.808594 143.417969 59.402344 C 143.347656 59.160156 143.207031 58.964844 143.003906 58.804688 C 142.503906 58.402344 142.015625 57.984375 141.507812 57.585938 C 141.15625 57.308594 140.796875 57.042969 140.363281 56.878906 C 140.035156 56.757812 139.753906 56.515625 139.453125 56.324219 C 139.351562 56.261719 139.304688 56.179688 139.289062 56.078125 C 139.285156 55.765625 139.363281 55.472656 139.605469 55.207031 C 139.667969 55.140625 139.730469 55.074219 139.789062 55.007812 C 140.117188 54.640625 140.214844 54.125 140.046875 53.664062 L 140.015625 53.578125 C 139.777344 52.929688 139.078125 52.5625 138.410156 52.75 C 138.40625 52.753906 138.402344 52.753906 138.394531 52.753906 C 138.359375 52.765625 138.320312 52.78125 138.28125 52.796875 C 138.214844 52.824219 138.152344 52.855469 138.097656 52.902344 C 137.796875 53.15625 137.589844 53.503906 137.519531 53.894531 C 137.480469 54.105469 137.535156 54.554688 137.574219 54.769531 C 137.585938 54.832031 137.605469 54.890625 137.636719 54.945312 L 137.675781 55.015625 C 137.71875 55.078125 137.847656 55.132812 137.910156 55.109375 C 137.972656 55.089844 138.023438 54.96875 138.035156 54.886719 C 138.050781 54.796875 138.007812 54.695312 138.003906 54.601562 C 137.996094 54.457031 137.957031 54.316406 137.957031 54.160156 C 137.878906 53.6875 138.195312 53.136719 138.816406 53.136719 C 138.984375 53.136719 139.128906 53.179688 139.246094 53.246094 C 139.398438 53.316406 139.511719 53.429688 139.589844 53.566406 C 139.707031 53.75 139.75 53.984375 139.71875 54.203125 C 139.710938 54.367188 139.648438 54.488281 139.570312 54.585938 C 139.527344 54.648438 139.476562 54.703125 139.414062 54.75 C 139.078125 55.085938 138.890625 55.476562 138.863281 55.945312 C 138.816406 56.152344 138.699219 56.316406 138.515625 56.464844 C 138.167969 56.75 137.847656 57.074219 137.527344 57.390625 C 137.390625 57.523438 137.25 57.601562 137.054688 57.632812 C 136.863281 57.664062 136.683594 57.777344 136.429688 57.882812 C 136.179688 57.691406 135.910156 57.484375 135.640625 57.277344 C 135.3125 57.027344 134.980469 56.808594 134.585938 56.660156 C 134.15625 56.496094 133.769531 56.222656 133.339844 55.988281 C 133.292969 55.59375 133.347656 55.230469 133.644531 54.90625 C 133.707031 54.839844 133.769531 54.773438 133.828125 54.707031 C 134.15625 54.339844 134.25 53.824219 134.082031 53.363281 L 134.054688 53.277344 C 133.816406 52.628906 133.117188 52.261719 132.449219 52.449219 C 132.441406 52.453125 132.4375 52.453125 132.433594 52.453125 C 132.394531 52.464844 132.359375 52.476562 132.320312 52.492188 C 132.253906 52.519531 132.191406 52.554688 132.136719 52.601562 C 131.835938 52.855469 131.628906 53.203125 131.554688 53.589844 C 131.515625 53.804688 131.574219 54.253906 131.613281 54.46875 C 131.625 54.53125 131.644531 54.589844 131.675781 54.644531 L 131.714844 54.714844 C 131.757812 54.777344 131.886719 54.832031 131.949219 54.808594 C 132.011719 54.785156 132.058594 54.667969 132.074219 54.585938 C 132.085938 54.492188 132.046875 54.394531 132.042969 54.300781 C 132.035156 54.15625 131.996094 54.015625 131.996094 53.859375 C 131.917969 53.386719 132.234375 52.835938 132.855469 52.835938 C 133.023438 52.835938 133.167969 52.878906 133.285156 52.945312 C 133.4375 53.015625 133.550781 53.128906 133.625 53.265625 C 133.742188 53.449219 133.785156 53.683594 133.753906 53.902344 C 133.75 54.066406 133.6875 54.1875 133.609375 54.285156 C 133.566406 54.347656 133.511719 54.402344 133.453125 54.449219 C 133.085938 54.816406 132.894531 55.242188 132.894531 55.769531 C 132.894531 55.894531 132.796875 56.046875 132.699219 56.144531 C 132.511719 56.34375 132.292969 56.511719 132.089844 56.695312 C 131.757812 56.996094 131.414062 57.273438 131.042969 57.535156 C 130.484375 57.921875 130.019531 58.4375 129.503906 58.886719 C 129.039062 59.289062 128.710938 59.765625 128.488281 60.300781 C 128.445312 61.964844 128.058594 63.644531 127.335938 65.160156 C 127.539062 65.71875 127.988281 66.097656 128.4375 66.46875 C 128.648438 66.644531 128.761719 66.910156 128.746094 67.183594 C 128.652344 68.703125 128.59375 70.226562 128.523438 71.75 C 128.488281 72.570312 128.449219 73.390625 128.410156 74.210938 C 128.398438 74.457031 128.386719 74.703125 128.386719 74.949219 C 128.382812 75.269531 128.386719 75.273438 128.703125 75.363281 C 129.875 75.707031 131.074219 75.792969 132.285156 75.703125 C 132.898438 75.65625 133.507812 75.558594 134.101562 75.484375 C 134.28125 75.582031 134.417969 75.691406 134.574219 75.738281 C 135.9375 76.140625 137.328125 76.175781 138.726562 76.039062 C 139.808594 75.933594 140.867188 75.699219 141.855469 75.230469 C 142.347656 74.996094 142.796875 74.679688 143.265625 74.398438 C 143.570312 74.214844 143.671875 73.957031 143.621094 73.597656 C 143.523438 72.878906 143.441406 72.160156 143.382812 71.4375 C 143.238281 69.648438 143.117188 67.859375 142.972656 66.070312 C 142.949219 65.777344 143.03125 65.589844 143.28125 65.425781 C 143.761719 65.113281 144.09375 64.65625 144.371094 64.164062 C 144.5 63.9375 144.523438 63.722656 144.453125 63.460938 Z M 129.613281 65.765625 C 129.199219 65.542969 128.753906 65.378906 128.320312 65.1875 C 128.335938 65.160156 128.351562 65.136719 128.367188 65.109375 C 129.28125 65.414062 130.191406 65.730469 130.816406 66.546875 C 130.417969 66.285156 130.03125 65.996094 129.613281 65.765625 Z M 130.421875 60.332031 C 130.074219 60.136719 129.703125 59.984375 129.375 59.828125 C 130.207031 59.765625 131.179688 60.515625 131.132812 61.324219 C 130.941406 60.960938 130.804688 60.542969 130.421875 60.332031 Z M 131.316406 66.203125 C 131.121094 64.953125 131.21875 63.695312 131.230469 62.4375 C 131.324219 63.691406 131.398438 64.941406 131.316406 66.203125 Z M 140.023438 57.660156 C 139.832031 57.917969 139.566406 58.035156 139.222656 58.011719 C 139.46875 57.863281 139.710938 57.714844 139.957031 57.566406 C 139.976562 57.597656 140 57.628906 140.023438 57.660156 Z M 138.921875 57.242188 C 139.132812 57.089844 139.351562 57.199219 139.574219 57.355469 C 139.195312 57.652344 138.8125 57.847656 138.257812 57.882812 C 138.519531 57.625 138.699219 57.402344 138.921875 57.242188 Z M 133.074219 57.097656 C 133.273438 56.960938 133.445312 57.125 133.691406 57.230469 C 133.308594 57.5 132.984375 57.636719 132.519531 57.648438 C 132.738281 57.429688 132.886719 57.234375 133.074219 57.097656 Z M 134.15625 57.496094 C 133.964844 57.785156 133.703125 57.8125 133.445312 57.847656 C 133.648438 57.699219 133.828125 57.5 134.15625 57.496094 Z M 144.117188 63.839844 C 143.859375 64.371094 143.519531 64.839844 142.949219 65.207031 C 142.917969 64.859375 142.886719 64.578125 142.875 64.296875 C 142.835938 63.4375 142.808594 62.574219 142.769531 61.710938 C 142.761719 61.546875 142.800781 61.351562 142.601562 61.242188 C 142.398438 61.316406 142.433594 61.488281 142.433594 61.625 C 142.4375 62.1875 142.441406 62.75 142.46875 63.308594 C 142.535156 64.636719 142.589844 65.964844 142.695312 67.289062 C 142.859375 69.359375 143.054688 71.433594 143.257812 73.503906 C 143.289062 73.804688 143.207031 73.984375 142.972656 74.15625 C 142.144531 74.773438 141.214844 75.15625 140.222656 75.402344 C 138.464844 75.835938 136.699219 75.863281 134.929688 75.480469 C 134.824219 75.457031 134.722656 75.417969 134.589844 75.378906 C 134.679688 72.679688 134.769531 69.992188 134.859375 67.257812 C 135.007812 67.3125 135.105469 67.347656 135.203125 67.386719 C 135.367188 67.449219 135.53125 67.527344 135.699219 67.578125 C 135.835938 67.617188 136.027344 67.71875 136.09375 67.53125 C 136.164062 67.324219 135.941406 67.308594 135.8125 67.261719 C 135.011719 66.992188 134.363281 66.5 133.800781 65.882812 C 133.699219 65.773438 133.605469 65.652344 133.523438 65.527344 C 133.378906 65.289062 133.335938 65.042969 133.417969 64.753906 C 133.75 63.539062 134.058594 62.316406 134.375 61.097656 C 134.503906 60.601562 134.707031 60.152344 135.101562 59.796875 C 135.699219 59.253906 136.277344 58.691406 136.863281 58.132812 C 137.019531 57.980469 137.179688 57.9375 137.378906 58.042969 C 137.96875 58.359375 138.59375 58.539062 139.277344 58.453125 C 139.519531 58.945312 139.582031 59.441406 139.589844 59.949219 C 139.59375 60.140625 139.464844 60.214844 139.3125 60.253906 C 139.050781 60.324219 138.992188 60.492188 138.996094 60.746094 C 139 61.46875 138.980469 62.195312 138.972656 62.921875 C 138.96875 62.972656 138.992188 63.023438 139.011719 63.125 C 139.125 63.089844 139.226562 63.070312 139.316406 63.03125 C 139.582031 62.917969 139.835938 62.773438 140.105469 62.683594 C 140.328125 62.609375 140.410156 62.476562 140.398438 62.257812 C 140.382812 61.765625 140.371094 61.273438 140.347656 60.78125 C 140.339844 60.523438 140.308594 60.269531 140.285156 59.964844 C 140.089844 60 139.960938 60.023438 139.824219 60.050781 C 139.734375 59.492188 139.648438 58.957031 139.554688 58.378906 C 140.035156 58.214844 140.429688 57.917969 140.644531 57.347656 C 141.332031 57.890625 141.972656 58.394531 142.589844 58.886719 C 142.617188 59.558594 142.644531 60.183594 142.667969 60.8125 C 142.96875 60.269531 142.785156 59.695312 142.738281 59.117188 C 142.988281 59.15625 143.039062 59.335938 143.082031 59.5 C 143.25 60.09375 143.410156 60.6875 143.558594 61.285156 C 143.75 62.042969 143.925781 62.804688 144.101562 63.5625 C 144.121094 63.652344 144.148438 63.765625 144.113281 63.839844 Z M 140.128906 60.175781 C 140.160156 60.636719 140.195312 61.054688 140.210938 61.46875 C 140.222656 61.769531 140.285156 62.097656 140.183594 62.363281 C 140.078125 62.652344 139.667969 62.601562 139.421875 62.769531 C 139.363281 62.8125 139.28125 62.828125 139.183594 62.867188 L 139.183594 60.496094 C 139.492188 60.394531 139.785156 60.292969 140.128906 60.175781 Z M 140.128906 60.175781 "/></g><g clip-rule="nonzero" clip-path="url(#3293762508)"><path style=" stroke:none;fill-rule:nonzero;fill:#4675bd;fill-opacity:0.071;" d="M 77.285156 54.351562 C 77.191406 54.351562 76.804688 54.558594 76.621094 54.703125 C 76.519531 54.785156 75.433594 55.199219 74.691406 55.441406 C 73.847656 55.710938 73.605469 55.777344 73.15625 55.863281 C 72.449219 55.996094 72.046875 56.308594 71.71875 56.96875 C 71.628906 57.15625 71.519531 57.453125 71.476562 57.632812 C 71.4375 57.8125 71.382812 57.980469 71.359375 58.003906 C 71.335938 58.027344 71.316406 58.136719 71.316406 58.242188 C 71.316406 58.425781 71.296875 58.464844 71.015625 58.847656 C 70.972656 58.902344 70.925781 59.085938 70.902344 59.253906 C 70.878906 59.480469 70.839844 59.597656 70.761719 59.679688 C 70.667969 59.777344 70.644531 59.871094 70.609375 60.273438 C 70.5625 60.792969 70.542969 60.882812 70.222656 61.894531 C 69.980469 62.671875 69.777344 63.4375 69.644531 64.101562 C 69.542969 64.609375 69.457031 65.359375 69.488281 65.484375 C 69.5 65.527344 69.597656 65.59375 69.703125 65.632812 L 70.15625 65.796875 C 70.957031 66.089844 71.214844 66.136719 72.027344 66.15625 L 72.808594 66.175781 L 72.972656 66.335938 C 73.113281 66.480469 73.164062 66.5 73.367188 66.5 C 73.492188 66.5 73.597656 66.515625 73.597656 66.535156 C 73.597656 66.628906 73.347656 67.558594 73.296875 67.664062 C 73.199219 67.847656 73.167969 68.4375 73.230469 68.804688 C 73.3125 69.292969 73.300781 69.460938 73.15625 69.945312 C 73.003906 70.453125 73.015625 70.625 73.269531 71.195312 C 73.433594 71.574219 73.445312 71.761719 73.316406 72.085938 C 73.210938 72.355469 73.199219 72.605469 73.28125 72.753906 C 73.320312 72.820312 73.347656 73.214844 73.367188 73.992188 C 73.398438 75.144531 73.480469 75.800781 73.617188 75.9375 C 73.660156 75.984375 73.738281 75.988281 73.949219 75.957031 C 74.261719 75.90625 75.300781 75.960938 75.667969 76.046875 C 75.796875 76.074219 76.152344 76.167969 76.460938 76.253906 C 77.019531 76.410156 77.832031 76.582031 78.179688 76.617188 C 78.285156 76.628906 78.816406 76.632812 79.367188 76.625 C 80.179688 76.613281 80.460938 76.59375 80.859375 76.511719 C 81.683594 76.339844 82.101562 76.207031 83 75.828125 C 83.992188 75.410156 84.71875 75.1875 85.292969 75.128906 C 85.527344 75.105469 85.621094 75.078125 85.652344 75.015625 C 85.710938 74.902344 85.710938 73.90625 85.648438 73.449219 C 85.621094 73.25 85.558594 72.957031 85.503906 72.800781 L 85.40625 72.515625 L 85.578125 72.117188 C 85.90625 71.347656 85.957031 70.738281 85.714844 70.378906 C 85.625 70.246094 85.601562 70.175781 85.628906 70.066406 C 85.902344 68.789062 85.945312 67.714844 85.761719 66.738281 L 85.730469 66.582031 L 86.050781 66.617188 C 86.628906 66.683594 86.878906 66.617188 87.15625 66.320312 C 87.257812 66.214844 87.347656 66.171875 87.53125 66.148438 C 88.097656 66.070312 88.847656 65.878906 89.445312 65.652344 C 90 65.441406 89.992188 65.457031 89.839844 64.964844 C 89.789062 64.800781 89.683594 64.429688 89.605469 64.148438 C 89.414062 63.46875 89.140625 62.585938 88.855469 61.734375 C 88.648438 61.109375 88.625 61.011719 88.652344 60.773438 C 88.691406 60.4375 88.621094 60.171875 88.453125 60.023438 C 88.328125 59.914062 88.316406 59.871094 88.289062 59.46875 C 88.257812 59.054688 88.078125 58.214844 87.976562 58.027344 C 87.953125 57.980469 87.933594 57.890625 87.933594 57.824219 C 87.933594 57.761719 87.875 57.558594 87.808594 57.375 C 87.621094 56.867188 87.265625 56.507812 86.65625 56.214844 C 86.398438 56.089844 85.902344 55.890625 85.558594 55.773438 C 83.679688 55.128906 83.304688 54.976562 82.835938 54.664062 C 82.613281 54.515625 82.546875 54.492188 82.46875 54.53125 C 82.046875 54.730469 80.84375 54.910156 79.90625 54.910156 C 78.96875 54.910156 78.308594 54.78125 77.621094 54.460938 C 77.496094 54.402344 77.34375 54.355469 77.285156 54.351562 Z M 77.222656 54.539062 C 77.25 54.539062 77.3125 54.621094 77.363281 54.71875 C 77.53125 55.050781 78.027344 55.660156 78.324219 55.90625 C 78.902344 56.382812 79.578125 56.609375 80.097656 56.5 C 80.660156 56.378906 81.148438 56.132812 81.640625 55.714844 C 81.882812 55.507812 82.34375 54.996094 82.492188 54.773438 L 82.566406 54.65625 L 82.757812 54.785156 C 82.867188 54.855469 82.953125 54.933594 82.953125 54.960938 C 82.953125 55.070312 82.660156 55.570312 82.417969 55.875 C 81.925781 56.492188 81.28125 56.867188 80.4375 57.03125 C 79.414062 57.226562 78.464844 56.925781 77.652344 56.148438 C 77.21875 55.730469 76.761719 55.066406 76.761719 54.847656 C 76.761719 54.78125 77.125 54.539062 77.222656 54.539062 Z M 83.25 55.097656 C 83.257812 55.097656 83.410156 55.15625 83.585938 55.230469 C 83.761719 55.300781 84.03125 55.40625 84.183594 55.457031 L 85.34375 55.859375 C 86.378906 56.21875 86.898438 56.460938 87.191406 56.71875 C 87.417969 56.917969 87.65625 57.320312 87.742188 57.644531 C 87.800781 57.867188 87.785156 57.914062 87.449219 58.445312 L 87.261719 58.746094 L 87.195312 58.585938 C 87.097656 58.335938 87.007812 58.261719 86.808594 58.261719 C 86.664062 58.261719 86.589844 58.296875 86.441406 58.4375 C 86.230469 58.640625 86.183594 58.777344 86.023438 59.75 C 85.96875 60.097656 85.914062 60.390625 85.902344 60.398438 C 85.890625 60.410156 85.882812 60.132812 85.882812 59.78125 C 85.882812 58.679688 85.695312 57.65625 85.492188 57.65625 C 85.375 57.65625 85.316406 58.597656 85.382812 59.449219 C 85.410156 59.804688 85.441406 60.171875 85.488281 60.730469 C 85.597656 62.050781 85.554688 63.394531 85.367188 64.5 C 85.222656 65.351562 85.1875 65.480469 84.394531 67.867188 C 84.035156 68.945312 83.722656 69.894531 83.695312 69.972656 C 83.640625 70.144531 83.636719 70.363281 83.6875 70.363281 C 83.785156 70.363281 84.039062 70.007812 84.667969 69.011719 L 84.769531 68.851562 L 84.738281 68.988281 C 84.6875 69.214844 84.472656 69.816406 84.148438 70.640625 C 83.800781 71.527344 83.601562 71.960938 83.386719 72.308594 C 83.214844 72.578125 83.195312 72.679688 83.304688 72.722656 C 83.429688 72.769531 83.5625 72.589844 83.886719 71.921875 C 84.253906 71.167969 84.496094 70.550781 85.019531 69.058594 C 85.105469 68.816406 85.191406 68.582031 85.207031 68.539062 C 85.25 68.4375 85.324219 68.472656 85.324219 68.589844 C 85.324219 68.636719 85.390625 68.804688 85.472656 68.96875 C 85.632812 69.285156 85.632812 69.292969 85.46875 70.109375 C 85.386719 70.511719 84.425781 72.300781 83.664062 73.476562 C 83.40625 73.875 83.371094 74.015625 83.535156 74.015625 C 83.597656 74.015625 83.707031 73.898438 83.890625 73.621094 C 84.265625 73.050781 84.910156 71.933594 85.292969 71.191406 C 85.472656 70.839844 85.636719 70.5625 85.65625 70.574219 C 85.726562 70.621094 85.75 70.972656 85.699219 71.234375 C 85.589844 71.78125 85.300781 72.464844 85.050781 72.785156 C 84.707031 73.21875 84.328125 73.625 84.085938 73.8125 C 83.898438 73.957031 83.835938 74.035156 83.84375 74.105469 C 83.851562 74.160156 83.890625 74.207031 83.929688 74.214844 C 84.035156 74.238281 84.558594 73.773438 84.976562 73.296875 L 85.347656 72.867188 L 85.402344 73 C 85.488281 73.214844 85.566406 74.027344 85.550781 74.507812 L 85.535156 74.949219 L 85.394531 74.960938 C 84.78125 75.015625 83.890625 75.28125 82.882812 75.714844 C 82.207031 76.003906 81.472656 76.234375 80.785156 76.367188 C 80.210938 76.476562 78.8125 76.527344 78.203125 76.460938 C 77.714844 76.410156 76.957031 76.25 76.4375 76.089844 C 75.851562 75.910156 75.292969 75.808594 74.882812 75.808594 C 74.699219 75.808594 74.507812 75.796875 74.457031 75.78125 C 74.339844 75.75 73.703125 74.503906 73.757812 74.414062 C 73.8125 74.328125 74.113281 74.375 74.992188 74.617188 C 75.621094 74.792969 76.636719 75.046875 77.015625 75.125 C 77.332031 75.191406 77.566406 75.238281 78.113281 75.339844 C 78.738281 75.457031 80.546875 75.625 81.183594 75.621094 C 81.636719 75.621094 82.640625 75.503906 82.769531 75.433594 C 82.84375 75.394531 82.855469 75.367188 82.816406 75.328125 C 82.753906 75.265625 82.210938 75.277344 81.96875 75.34375 C 81.757812 75.40625 81.28125 75.402344 81.007812 75.335938 C 80.277344 75.160156 78.878906 74.636719 77.863281 74.160156 C 77.609375 74.042969 77.394531 73.945312 77.386719 73.945312 C 77.34375 73.945312 76.453125 73.417969 76.140625 73.207031 C 75.628906 72.863281 75.070312 72.246094 74.71875 71.644531 C 74.554688 71.363281 74.3125 70.941406 74.175781 70.710938 C 73.582031 69.703125 73.414062 68.96875 73.769531 68.96875 C 73.871094 68.96875 73.984375 69.054688 74.296875 69.375 C 74.625 69.714844 74.757812 69.902344 75.082031 70.480469 C 75.578125 71.367188 75.992188 71.988281 76.386719 72.445312 C 76.714844 72.828125 76.902344 72.929688 76.902344 72.722656 C 76.902344 72.664062 76.855469 72.570312 76.800781 72.523438 C 76.683594 72.414062 76.296875 71.917969 76.296875 71.875 C 76.296875 71.855469 76.40625 71.945312 76.539062 72.070312 C 77.652344 73.117188 79.488281 73.992188 81.207031 74.289062 C 82.351562 74.484375 82.441406 74.492188 82.441406 74.390625 C 82.441406 74.351562 82.429688 74.320312 82.414062 74.320312 C 82.328125 74.320312 81.644531 74.113281 81.464844 74.03125 C 80.925781 73.789062 80.5 73.558594 80.414062 73.457031 C 80.363281 73.398438 80.175781 73.25 79.996094 73.128906 C 78.296875 71.992188 76.285156 69.675781 75.222656 67.640625 C 75.0625 67.332031 74.886719 67.039062 74.828125 66.980469 C 74.617188 66.773438 74.1875 65.195312 73.976562 63.847656 C 73.679688 61.96875 73.625 59.632812 73.820312 57.195312 C 73.851562 56.832031 73.863281 56.792969 73.96875 56.742188 C 74.035156 56.710938 74.621094 56.515625 75.273438 56.300781 C 75.925781 56.089844 76.546875 55.878906 76.652344 55.832031 C 76.757812 55.785156 76.875 55.761719 76.910156 55.773438 C 76.945312 55.789062 77.0625 55.914062 77.171875 56.050781 C 77.414062 56.355469 77.898438 56.753906 78.265625 56.953125 C 78.871094 57.28125 79.628906 57.421875 80.285156 57.332031 C 81.496094 57.167969 82.390625 56.554688 83.03125 55.457031 C 83.144531 55.257812 83.246094 55.097656 83.25 55.097656 Z M 72.867188 57.316406 C 72.929688 57.304688 72.933594 57.386719 72.867188 57.554688 C 72.785156 57.765625 72.679688 57.808594 72.566406 57.675781 C 72.515625 57.609375 72.53125 57.578125 72.683594 57.4375 C 72.765625 57.363281 72.828125 57.324219 72.867188 57.316406 Z M 72.390625 57.890625 C 72.410156 57.890625 72.484375 57.9375 72.550781 57.996094 L 72.671875 58.101562 L 72.601562 58.402344 C 72.5625 58.570312 72.519531 58.78125 72.503906 58.878906 C 72.488281 58.976562 72.460938 59.054688 72.441406 59.054688 C 72.394531 59.054688 72.105469 58.757812 72.105469 58.714844 C 72.105469 58.695312 72.136719 58.679688 72.171875 58.679688 C 72.261719 58.679688 72.296875 58.574219 72.328125 58.203125 C 72.339844 58.03125 72.371094 57.890625 72.390625 57.890625 Z M 87.886719 58.308594 C 87.945312 58.308594 88.074219 58.902344 88.136719 59.484375 C 88.1875 59.980469 88.203125 60.035156 88.316406 60.125 C 88.476562 60.25 88.535156 60.46875 88.488281 60.769531 C 88.453125 60.980469 88.46875 61.066406 88.613281 61.484375 C 89.035156 62.710938 89.613281 64.652344 89.570312 64.691406 C 89.523438 64.738281 89.125 64.851562 88.308594 65.0625 C 87.914062 65.160156 87.5625 65.246094 87.527344 65.246094 C 87.453125 65.246094 87.449219 65.011719 87.511719 64.050781 C 87.535156 63.667969 87.566406 62.316406 87.578125 61.042969 L 87.601562 58.726562 L 87.726562 58.515625 C 87.792969 58.402344 87.863281 58.308594 87.886719 58.308594 Z M 86.800781 58.550781 C 86.921875 58.550781 86.953125 58.625 86.949219 58.820312 C 86.945312 58.957031 86.898438 59.027344 86.644531 59.261719 L 86.34375 59.539062 L 86.375 59.332031 C 86.390625 59.21875 86.421875 59.0625 86.441406 58.984375 C 86.464844 58.90625 86.492188 58.789062 86.507812 58.71875 C 86.53125 58.617188 86.570312 58.585938 86.703125 58.558594 C 86.742188 58.554688 86.773438 58.550781 86.800781 58.550781 Z M 71.957031 59.058594 C 71.988281 59.058594 72.054688 59.109375 72.191406 59.230469 L 72.433594 59.449219 L 72.382812 59.636719 C 72.328125 59.828125 72.34375 60.804688 72.429688 62.613281 C 72.453125 63.101562 72.496094 64.027344 72.523438 64.675781 C 72.546875 65.324219 72.582031 65.871094 72.597656 65.894531 C 72.609375 65.917969 72.582031 65.960938 72.53125 65.984375 C 72.308594 66.105469 70.972656 65.972656 70.84375 65.816406 C 70.8125 65.78125 70.789062 65.652344 70.789062 65.53125 C 70.792969 65.402344 70.761719 65.28125 70.71875 65.230469 C 70.660156 65.164062 70.65625 65.121094 70.707031 64.953125 C 70.828125 64.539062 71.175781 64.128906 71.65625 63.824219 C 71.804688 63.730469 71.9375 63.625 71.953125 63.589844 C 72.011719 63.429688 71.898438 63.246094 71.457031 62.816406 L 70.996094 62.367188 L 71.042969 62.1875 C 71.070312 62.089844 71.152344 61.792969 71.226562 61.523438 C 71.300781 61.257812 71.363281 60.984375 71.363281 60.917969 C 71.363281 60.742188 71.484375 60.59375 71.71875 60.496094 C 71.945312 60.398438 71.972656 60.308594 71.847656 60.070312 C 71.78125 59.945312 71.78125 59.894531 71.847656 59.550781 C 71.886719 59.339844 71.925781 59.132812 71.929688 59.089844 C 71.933594 59.070312 71.941406 59.058594 71.957031 59.058594 Z M 87.296875 59.199219 C 87.300781 59.199219 87.304688 59.203125 87.308594 59.203125 C 87.347656 59.242188 87.226562 65.273438 87.183594 65.4375 C 87.132812 65.625 86.941406 65.816406 86.6875 65.921875 C 86.597656 65.957031 86.484375 65.988281 86.433594 65.988281 C 86.347656 65.988281 86.34375 65.953125 86.375 64.511719 C 86.402344 63.253906 86.421875 62.980469 86.5 62.683594 C 86.640625 62.148438 86.703125 61.894531 86.765625 61.589844 C 86.800781 61.4375 86.84375 61.246094 86.863281 61.171875 C 86.882812 61.09375 86.933594 60.832031 86.976562 60.589844 C 87.019531 60.347656 87.074219 60.058594 87.097656 59.953125 C 87.121094 59.84375 87.140625 59.691406 87.140625 59.613281 C 87.140625 59.484375 87.25 59.203125 87.296875 59.199219 Z M 86.917969 59.355469 L 86.894531 59.496094 C 86.878906 59.574219 86.851562 59.730469 86.835938 59.84375 C 86.785156 60.222656 86.457031 61.800781 86.425781 61.832031 C 86.417969 61.839844 86.394531 61.785156 86.378906 61.707031 C 86.363281 61.625 86.328125 61.574219 86.304688 61.589844 C 86.277344 61.605469 86.238281 61.683594 86.214844 61.765625 C 86.15625 61.964844 86.152344 60.984375 86.207031 60.511719 C 86.242188 60.21875 86.273438 60.136719 86.453125 59.882812 C 86.570312 59.71875 86.722656 59.535156 86.792969 59.472656 Z M 89.632812 64.980469 C 89.671875 64.976562 89.703125 65.007812 89.71875 65.074219 C 89.734375 65.136719 89.757812 65.21875 89.773438 65.257812 C 89.792969 65.304688 89.753906 65.355469 89.667969 65.398438 C 89.441406 65.515625 88.683594 65.753906 88.164062 65.875 C 87.605469 66.003906 87.421875 66.015625 87.421875 65.925781 C 87.421875 65.890625 87.433594 65.769531 87.449219 65.652344 C 87.472656 65.464844 87.488281 65.445312 87.585938 65.464844 C 87.6875 65.484375 88.242188 65.382812 88.558594 65.289062 C 88.636719 65.265625 88.890625 65.191406 89.117188 65.125 C 89.347656 65.058594 89.574219 64.996094 89.613281 64.984375 C 89.621094 64.980469 89.625 64.980469 89.632812 64.980469 Z M 73.007812 65.015625 C 73.007812 65.015625 73.011719 65.015625 73.011719 65.019531 C 73.03125 65.035156 73.117188 65.304688 73.207031 65.621094 C 73.296875 65.9375 73.382812 66.234375 73.398438 66.28125 C 73.414062 66.335938 73.394531 66.359375 73.332031 66.359375 C 73.167969 66.359375 73.078125 66.25 73.0625 66.03125 C 73.058594 65.917969 73.035156 65.636719 73.015625 65.40625 C 72.996094 65.191406 72.996094 65.023438 73.007812 65.015625 Z M 87.121094 66.027344 C 87.132812 66.023438 87.140625 66.027344 87.140625 66.03125 C 87.140625 66.105469 86.902344 66.363281 86.765625 66.433594 C 86.609375 66.515625 86.367188 66.523438 86.320312 66.445312 C 86.285156 66.386719 86.421875 66.269531 86.527344 66.269531 C 86.5625 66.269531 86.71875 66.207031 86.867188 66.128906 C 86.980469 66.070312 87.078125 66.03125 87.121094 66.027344 Z M 73.640625 67.132812 C 73.652344 67.132812 73.664062 67.15625 73.679688 67.199219 C 73.753906 67.378906 73.914062 67.816406 73.945312 67.933594 C 73.960938 67.988281 73.96875 68.035156 73.960938 68.035156 C 73.953125 68.035156 73.84375 67.941406 73.722656 67.824219 L 73.496094 67.617188 L 73.5625 67.351562 C 73.605469 67.195312 73.621094 67.132812 73.640625 67.132812 Z M 74.414062 68.300781 C 74.429688 68.304688 74.515625 68.429688 74.621094 68.617188 C 75.261719 69.714844 75.882812 70.449219 76.761719 71.136719 C 77.265625 71.527344 77.644531 71.898438 77.644531 72 C 77.644531 72.179688 77.226562 72.039062 76.636719 71.65625 C 76.164062 71.351562 75.9375 71.09375 75.523438 70.40625 C 75.316406 70.0625 75.058594 69.640625 74.949219 69.464844 C 74.761719 69.15625 74.480469 68.554688 74.414062 68.316406 C 74.410156 68.304688 74.410156 68.300781 74.414062 68.300781 Z M 73.21875 70.339844 L 73.308594 70.550781 C 73.824219 71.78125 74.46875 72.816406 74.960938 73.210938 C 75.164062 73.371094 76.453125 74.039062 76.566406 74.039062 C 76.609375 74.039062 77.226562 74.292969 77.398438 74.382812 C 77.472656 74.421875 77.5625 74.488281 77.597656 74.527344 C 77.683594 74.632812 77.617188 74.617188 76.902344 74.378906 C 76.351562 74.195312 75.066406 73.652344 74.214844 73.242188 C 73.898438 73.09375 73.617188 72.96875 73.582031 72.96875 C 73.546875 72.96875 73.480469 72.855469 73.429688 72.710938 C 73.34375 72.453125 73.34375 72.453125 73.445312 72.164062 C 73.589844 71.765625 73.582031 71.511719 73.410156 71.144531 C 73.332031 70.976562 73.257812 70.730469 73.246094 70.589844 Z M 73.519531 73.203125 C 73.53125 73.203125 73.808594 73.335938 74.140625 73.496094 L 75.085938 73.957031 C 75.488281 74.15625 75.484375 74.15625 74.921875 74.019531 C 74.292969 73.863281 73.90625 73.796875 73.707031 73.816406 L 73.527344 73.832031 L 73.511719 73.515625 C 73.503906 73.34375 73.507812 73.203125 73.519531 73.203125 Z M 73.519531 73.203125 "/></g><g clip-rule="nonzero" clip-path="url(#53769f05a1)"><path style=" stroke:none;fill-rule:nonzero;fill:#4675bd;fill-opacity:1;" d="M 77.339844 54.082031 C 77.332031 54.082031 77.320312 54.082031 77.3125 54.082031 L 77.308594 54.082031 C 77.300781 54.082031 77.289062 54.085938 77.28125 54.085938 C 77.28125 54.085938 77.277344 54.085938 77.277344 54.085938 C 77.148438 54.109375 76.960938 54.199219 76.636719 54.390625 C 76.03125 54.746094 74.132812 55.417969 73.207031 55.601562 C 72.675781 55.707031 72.332031 55.847656 72.050781 56.074219 C 71.835938 56.246094 71.511719 56.71875 71.367188 57.070312 C 71.21875 57.425781 71.027344 58.089844 71.027344 58.242188 C 71.027344 58.328125 70.96875 58.457031 70.871094 58.585938 C 70.703125 58.800781 70.609375 59.0625 70.609375 59.308594 C 70.609375 59.390625 70.582031 59.480469 70.542969 59.507812 C 70.402344 59.625 70.324219 59.890625 70.304688 60.324219 C 70.289062 60.675781 70.246094 60.882812 70.101562 61.335938 C 69.6875 62.617188 69.398438 63.726562 69.328125 64.304688 C 69.320312 64.390625 69.304688 64.605469 69.292969 64.847656 C 69.289062 64.855469 69.289062 64.867188 69.289062 64.875 C 69.28125 64.980469 69.277344 65.085938 69.273438 65.183594 C 69.269531 65.292969 69.265625 65.378906 69.265625 65.453125 C 69.261719 65.621094 69.269531 65.707031 69.285156 65.753906 C 69.285156 65.757812 69.289062 65.757812 69.289062 65.757812 C 69.316406 65.863281 69.382812 65.886719 69.507812 65.914062 C 69.589844 65.929688 69.769531 65.992188 69.910156 66.050781 C 70.171875 66.160156 70.652344 66.3125 71.027344 66.402344 C 71.144531 66.429688 71.5625 66.464844 71.957031 66.476562 C 72.632812 66.503906 72.6875 66.511719 72.796875 66.613281 C 72.863281 66.675781 72.984375 66.75 73.070312 66.777344 C 73.117188 66.792969 73.148438 66.804688 73.171875 66.820312 C 73.183594 66.832031 73.195312 66.84375 73.203125 66.855469 C 73.214844 66.886719 73.210938 66.933594 73.195312 67.015625 C 73.179688 67.117188 73.121094 67.320312 73.070312 67.464844 C 73.015625 67.609375 72.953125 67.851562 72.929688 68.007812 C 72.878906 68.3125 72.910156 68.933594 72.992188 69.199219 C 73.03125 69.335938 73.023438 69.410156 72.949219 69.617188 C 72.703125 70.277344 72.714844 70.726562 72.988281 71.304688 C 73.148438 71.644531 73.15625 71.765625 73.03125 72.054688 C 72.925781 72.300781 72.90625 72.683594 72.996094 72.839844 C 73.035156 72.90625 73.0625 73.308594 73.082031 74.101562 C 73.105469 75.085938 73.125 75.335938 73.214844 75.703125 C 73.296875 76.050781 73.328125 76.199219 73.484375 76.257812 L 73.488281 76.261719 C 73.53125 76.28125 73.585938 76.289062 73.652344 76.289062 C 73.773438 76.296875 73.941406 76.289062 74.179688 76.28125 C 75.023438 76.25 75.46875 76.304688 76.320312 76.546875 C 76.964844 76.726562 77.265625 76.789062 77.824219 76.867188 C 77.875 76.871094 77.972656 76.878906 78.09375 76.886719 C 78.121094 76.890625 78.144531 76.898438 78.148438 76.902344 C 78.164062 76.917969 78.476562 76.917969 78.878906 76.910156 L 78.886719 76.910156 C 78.960938 76.910156 79.03125 76.914062 79.105469 76.914062 C 80.765625 76.925781 81.484375 76.785156 83.058594 76.140625 C 84.285156 75.640625 84.710938 75.515625 85.417969 75.433594 C 85.625 75.410156 85.8125 75.371094 85.835938 75.347656 C 86.042969 75.140625 85.988281 73.300781 85.761719 72.757812 C 85.699219 72.601562 85.703125 72.574219 85.828125 72.269531 C 86.058594 71.703125 86.125 71.425781 86.125 71.007812 C 86.125 70.6875 86.105469 70.574219 86.019531 70.40625 C 85.902344 70.179688 85.902344 70.125 86.042969 69.402344 C 86.105469 69.085938 86.125 68.738281 86.128906 67.972656 L 86.132812 66.96875 L 86.175781 66.964844 L 86.417969 66.964844 C 86.757812 66.964844 87.003906 66.871094 87.226562 66.660156 C 87.371094 66.519531 87.445312 66.492188 87.90625 66.402344 C 88.828125 66.230469 89.9375 65.855469 90.125 65.652344 C 90.148438 65.628906 90.164062 65.605469 90.175781 65.582031 C 90.195312 65.554688 90.203125 65.527344 90.203125 65.5 C 90.203125 65.476562 90.195312 65.421875 90.179688 65.351562 C 90.164062 65.273438 90.144531 65.171875 90.117188 65.027344 C 90.03125 64.601562 89.394531 62.496094 89.058594 61.539062 C 88.917969 61.128906 88.902344 61.035156 88.925781 60.789062 C 88.960938 60.449219 88.898438 60.195312 88.722656 59.949219 C 88.621094 59.808594 88.582031 59.695312 88.558594 59.441406 C 88.503906 58.839844 88.144531 57.4375 87.953125 57.054688 C 87.597656 56.359375 87.066406 56.035156 85.234375 55.40625 C 83.917969 54.957031 83.386719 54.738281 83.027344 54.496094 C 82.839844 54.371094 82.648438 54.253906 82.605469 54.238281 C 82.554688 54.21875 82.40625 54.253906 82.253906 54.316406 C 81.730469 54.535156 80.851562 54.667969 79.917969 54.671875 C 78.917969 54.671875 78.375 54.546875 77.417969 54.101562 C 77.394531 54.089844 77.371094 54.085938 77.339844 54.082031 Z M 77.25 54.488281 C 77.25 54.488281 77.25 54.484375 77.253906 54.488281 L 77.476562 54.871094 C 77.757812 55.351562 78.421875 56.027344 78.824219 56.238281 C 78.980469 56.320312 79.261719 56.421875 79.453125 56.46875 C 79.753906 56.535156 79.839844 56.539062 80.105469 56.488281 C 80.472656 56.414062 80.886719 56.234375 81.25 55.984375 C 81.519531 55.800781 82.203125 55.125 82.4375 54.8125 L 82.554688 54.652344 L 82.773438 54.789062 C 82.90625 54.875 82.988281 54.960938 82.988281 55.015625 C 82.988281 55.144531 82.707031 55.625 82.445312 55.949219 C 81.949219 56.5625 81.308594 56.949219 80.511719 57.113281 C 79.085938 57.410156 77.574219 56.640625 76.859375 55.25 C 76.65625 54.851562 76.660156 54.824219 77.015625 54.621094 Z M 77.621094 54.683594 C 77.660156 54.683594 77.800781 54.726562 77.960938 54.785156 C 78.542969 54.992188 78.804688 55.050781 79.492188 55.0625 C 79.761719 55.089844 79.933594 55.089844 80.261719 55.0625 C 81.015625 55.050781 81.507812 54.988281 81.964844 54.859375 C 82.050781 54.832031 82.132812 54.820312 82.140625 54.832031 C 82.152344 54.839844 82.027344 54.988281 81.863281 55.160156 C 81.566406 55.472656 81.546875 55.480469 81.011719 55.605469 C 80.726562 55.667969 79.566406 55.695312 79.175781 55.648438 C 78.988281 55.625 78.660156 55.550781 78.453125 55.488281 C 78.074219 55.371094 78.074219 55.371094 77.832031 55.039062 C 77.699219 54.855469 77.597656 54.695312 77.609375 54.683594 C 77.613281 54.683594 77.613281 54.683594 77.621094 54.683594 Z M 76.46875 54.953125 C 76.46875 54.953125 76.46875 54.953125 76.472656 54.953125 L 76.667969 55.335938 C 76.828125 55.640625 76.972656 55.820312 77.378906 56.234375 C 77.796875 56.652344 77.960938 56.785156 78.265625 56.9375 C 79.1875 57.40625 80.050781 57.476562 80.996094 57.160156 C 81.859375 56.875 82.605469 56.210938 83.0625 55.332031 C 83.152344 55.152344 83.210938 55.089844 83.265625 55.105469 C 83.304688 55.121094 83.539062 55.207031 83.78125 55.300781 C 84.023438 55.394531 84.671875 55.628906 85.21875 55.816406 C 87.039062 56.445312 87.46875 56.742188 87.738281 57.574219 L 87.828125 57.851562 C 87.828125 57.863281 87.828125 57.871094 87.828125 57.878906 C 87.828125 57.886719 87.828125 57.894531 87.828125 57.90625 L 87.621094 58.273438 C 87.5 58.488281 87.351562 58.722656 87.292969 58.796875 C 87.183594 58.925781 87.183594 58.925781 87.179688 58.824219 C 87.179688 58.703125 87.054688 58.4375 86.976562 58.382812 C 86.894531 58.328125 86.644531 58.34375 86.582031 58.40625 C 86.464844 58.523438 86.519531 58.582031 86.710938 58.554688 C 86.863281 58.527344 86.898438 58.539062 86.941406 58.621094 C 87.019531 58.761719 87.007812 59.09375 86.925781 59.09375 C 86.890625 59.09375 86.734375 59.230469 86.582031 59.398438 C 86.429688 59.570312 86.292969 59.691406 86.28125 59.667969 C 86.257812 59.628906 86.292969 59.417969 86.410156 58.90625 C 86.441406 58.765625 86.457031 58.632812 86.445312 58.613281 C 86.394531 58.523438 86.261719 58.742188 86.207031 59.011719 C 86.066406 59.699219 86.046875 59.832031 85.988281 60.390625 C 85.960938 60.636719 85.882812 62.519531 85.828125 64.210938 C 85.804688 65.019531 85.765625 65.816406 85.746094 65.980469 C 85.726562 66.15625 85.539062 66.792969 85.308594 67.472656 C 85.089844 68.125 84.839844 68.867188 84.757812 69.125 C 84.394531 70.246094 83.761719 71.796875 83.453125 72.320312 C 83.351562 72.492188 83.269531 72.644531 83.269531 72.660156 C 83.269531 72.675781 83.3125 72.683594 83.367188 72.675781 C 83.589844 72.640625 84.230469 71.207031 84.941406 69.148438 C 85 68.980469 85.117188 68.667969 85.203125 68.449219 C 85.289062 68.230469 85.425781 67.859375 85.507812 67.625 C 85.585938 67.386719 85.671875 67.203125 85.695312 67.21875 C 85.753906 67.253906 85.746094 68.523438 85.6875 69.003906 C 85.550781 70.074219 85.464844 70.382812 85.078125 71.136719 C 84.703125 71.871094 84.269531 72.632812 83.746094 73.46875 C 83.539062 73.796875 83.460938 73.964844 83.492188 73.996094 C 83.519531 74.023438 83.5625 74.03125 83.589844 74.015625 C 83.710938 73.941406 84.824219 72.035156 85.304688 71.082031 C 85.582031 70.539062 85.617188 70.488281 85.671875 70.566406 C 85.777344 70.710938 85.773438 71.160156 85.660156 71.566406 C 85.542969 71.992188 85.269531 72.597656 85.070312 72.871094 C 84.964844 73.011719 84.65625 73.351562 84.375 73.625 C 83.890625 74.105469 83.761719 74.320312 84.066406 74.140625 C 84.214844 74.050781 84.910156 73.351562 85.183594 73.011719 L 85.355469 72.800781 L 85.40625 72.933594 C 85.5 73.171875 85.574219 73.8125 85.589844 74.320312 C 85.589844 74.324219 85.589844 74.328125 85.589844 74.332031 C 85.589844 74.371094 85.589844 74.410156 85.589844 74.449219 L 85.578125 74.894531 C 85.566406 74.949219 85.554688 74.988281 85.539062 75.003906 C 85.511719 75.03125 85.414062 75.058594 85.328125 75.058594 C 84.894531 75.058594 84.027344 75.320312 82.898438 75.792969 C 81.859375 76.226562 81.035156 76.445312 80.097656 76.546875 C 79.691406 76.589844 78.75 76.597656 78.382812 76.5625 C 77.789062 76.507812 77.019531 76.347656 76.28125 76.128906 C 75.6875 75.953125 74.875 75.84375 74.226562 75.851562 C 73.949219 75.855469 73.703125 75.839844 73.683594 75.820312 C 73.59375 75.726562 73.496094 74.839844 73.476562 73.9375 C 73.464844 73.167969 73.441406 72.9375 73.375 72.742188 C 73.335938 72.628906 73.3125 72.570312 73.3125 72.503906 C 73.3125 72.496094 73.316406 72.488281 73.316406 72.476562 C 73.316406 72.476562 73.316406 72.472656 73.316406 72.472656 C 73.324219 72.410156 73.347656 72.335938 73.394531 72.210938 C 73.539062 71.796875 73.527344 71.554688 73.347656 71.167969 C 73.144531 70.730469 73.136719 70.355469 73.328125 69.789062 L 73.464844 69.382812 L 73.386719 69.058594 C 73.273438 68.585938 73.285156 68.117188 73.425781 67.675781 C 73.488281 67.476562 73.554688 67.242188 73.570312 67.15625 C 73.601562 66.980469 73.660156 66.960938 73.695312 67.109375 C 73.765625 67.402344 74.300781 68.863281 74.503906 69.3125 C 74.910156 70.207031 75.640625 71.46875 76.136719 72.125 C 76.34375 72.398438 76.75 72.824219 76.804688 72.824219 C 76.902344 72.824219 76.832031 72.671875 76.609375 72.417969 C 76.476562 72.269531 76.28125 72.023438 76.171875 71.871094 C 75.6875 71.183594 74.726562 69.347656 74.347656 68.378906 C 74.191406 67.980469 73.890625 67.070312 73.613281 66.144531 C 73.542969 65.914062 73.46875 65.671875 73.449219 65.609375 C 73.285156 65.136719 73.046875 63.695312 73.09375 63.472656 C 73.105469 63.40625 73.089844 63.171875 73.054688 62.957031 C 72.882812 61.90625 72.851562 60.777344 72.964844 59.792969 C 73.089844 58.699219 73.09375 58.492188 72.996094 58.234375 C 72.929688 58.054688 72.863281 57.96875 72.703125 57.863281 C 72.589844 57.789062 72.476562 57.699219 72.457031 57.664062 C 72.402344 57.574219 72.203125 57.589844 72.148438 57.6875 C 72.125 57.734375 72.097656 57.90625 72.089844 58.074219 C 72.082031 58.238281 72.054688 58.371094 72.027344 58.371094 C 71.957031 58.367188 71.621094 57.785156 71.621094 57.664062 C 71.621094 57.503906 71.816406 57.050781 72.015625 56.757812 C 72.296875 56.335938 72.558594 56.171875 73.148438 56.042969 C 73.996094 55.859375 75.523438 55.375 76.203125 55.074219 Z M 78.554688 55.753906 C 78.570312 55.753906 78.609375 55.757812 78.664062 55.769531 C 78.753906 55.785156 78.898438 55.820312 78.988281 55.847656 C 79.222656 55.925781 80.6875 55.917969 80.910156 55.839844 C 81.007812 55.808594 81.097656 55.789062 81.113281 55.804688 C 81.144531 55.835938 80.75 56.0625 80.464844 56.171875 C 80.183594 56.277344 79.648438 56.316406 79.386719 56.25 C 79.164062 56.195312 78.695312 55.949219 78.585938 55.832031 C 78.539062 55.777344 78.523438 55.753906 78.554688 55.753906 Z M 72.382812 57.894531 C 72.5 57.898438 72.742188 58.167969 72.796875 58.371094 C 72.851562 58.5625 72.832031 59.089844 72.765625 59.265625 C 72.75 59.296875 72.726562 59.324219 72.710938 59.324219 C 72.625 59.324219 72.234375 59.03125 72.105469 58.878906 C 71.925781 58.660156 71.914062 58.566406 72.074219 58.609375 C 72.214844 58.644531 72.230469 58.609375 72.277344 58.210938 C 72.292969 58.046875 72.332031 57.90625 72.363281 57.894531 C 72.367188 57.894531 72.375 57.894531 72.382812 57.894531 Z M 87.890625 58.238281 C 87.910156 58.238281 87.917969 58.265625 87.933594 58.304688 C 88.023438 58.535156 88.152344 59.21875 88.183594 59.613281 C 88.210938 59.980469 88.226562 60.03125 88.347656 60.136719 C 88.511719 60.285156 88.546875 60.421875 88.515625 60.78125 C 88.492188 61.039062 88.515625 61.136719 88.742188 61.8125 C 88.964844 62.460938 89.632812 64.636719 89.644531 64.734375 C 89.644531 64.738281 89.644531 64.738281 89.644531 64.742188 C 89.605469 64.785156 88.988281 64.984375 88.621094 65.070312 C 88.457031 65.113281 88.246094 65.164062 88.15625 65.1875 C 88.066406 65.210938 87.894531 65.257812 87.773438 65.285156 C 87.546875 65.34375 87.464844 65.46875 87.652344 65.46875 C 87.789062 65.46875 88.617188 65.265625 89.199219 65.089844 C 89.449219 65.011719 89.671875 64.96875 89.691406 64.988281 C 89.710938 65.011719 89.75 65.101562 89.78125 65.191406 C 89.828125 65.335938 89.824219 65.363281 89.738281 65.429688 C 89.609375 65.535156 88.757812 65.816406 88.132812 65.957031 C 87.851562 66.019531 87.5625 66.074219 87.492188 66.074219 L 87.359375 66.074219 L 87.386719 65.691406 C 87.445312 64.78125 87.472656 63.660156 87.5 61.28125 L 87.527344 58.757812 C 87.53125 58.746094 87.539062 58.734375 87.542969 58.71875 L 87.710938 58.46875 C 87.820312 58.300781 87.863281 58.234375 87.890625 58.238281 Z M 71.4375 58.300781 C 71.457031 58.300781 71.523438 58.402344 71.585938 58.523438 C 71.703125 58.742188 72.203125 59.257812 72.550781 59.511719 L 72.730469 59.648438 L 72.691406 60.035156 C 72.648438 60.460938 72.683594 61.988281 72.753906 62.539062 C 72.777344 62.730469 72.816406 63.160156 72.839844 63.492188 C 72.863281 63.824219 72.90625 64.222656 72.929688 64.375 C 72.984375 64.703125 73.222656 65.628906 73.359375 66.054688 C 73.414062 66.21875 73.441406 66.371094 73.425781 66.398438 C 73.363281 66.5 73.195312 66.441406 73.027344 66.257812 C 72.835938 66.050781 72.8125 66.046875 72.355469 66.097656 C 72.332031 66.101562 72.304688 66.105469 72.28125 66.105469 L 72.074219 66.105469 C 71.964844 66.101562 71.878906 66.101562 71.796875 66.101562 C 71.246094 66.050781 70.570312 65.875 69.886719 65.59375 C 69.660156 65.5 69.605469 65.457031 69.59375 65.359375 C 69.585938 65.285156 69.605469 65.226562 69.644531 65.210938 C 69.679688 65.199219 69.921875 65.261719 70.1875 65.355469 C 70.53125 65.472656 70.683594 65.507812 70.71875 65.472656 C 70.808594 65.382812 70.601562 65.242188 70.125 65.078125 C 69.890625 64.996094 69.695312 64.921875 69.660156 64.90625 C 69.65625 64.902344 69.65625 64.894531 69.652344 64.890625 C 69.652344 64.773438 69.8125 63.894531 69.914062 63.46875 C 70.042969 62.941406 70.414062 61.683594 70.519531 61.414062 C 70.621094 61.152344 70.75 60.457031 70.75 60.15625 C 70.75 59.992188 70.777344 59.902344 70.863281 59.800781 C 71.019531 59.617188 71.074219 59.457031 71.074219 59.203125 C 71.074219 59.027344 71.105469 58.957031 71.238281 58.800781 C 71.351562 58.667969 71.402344 58.566406 71.402344 58.457031 C 71.402344 58.371094 71.417969 58.300781 71.4375 58.300781 Z M 87.332031 59.140625 C 87.335938 59.140625 87.335938 59.140625 87.339844 59.144531 C 87.375 59.179688 87.28125 65.105469 87.242188 65.351562 C 87.199219 65.628906 87.101562 65.765625 86.824219 65.933594 C 86.632812 66.050781 86.503906 66.089844 86.265625 66.109375 L 85.953125 66.136719 L 85.984375 65.953125 C 86.050781 65.585938 86.105469 63.867188 86.105469 62.398438 C 86.101562 60.957031 86.144531 60.316406 86.253906 60.109375 C 86.335938 59.949219 86.855469 59.324219 86.90625 59.324219 C 86.9375 59.324219 86.945312 59.40625 86.925781 59.570312 C 86.835938 60.289062 86.492188 61.929688 86.367188 62.234375 C 86.335938 62.3125 86.273438 62.527344 86.222656 62.710938 C 86.15625 62.984375 86.148438 63.0625 86.195312 63.109375 C 86.242188 63.152344 86.265625 63.148438 86.3125 63.085938 C 86.363281 63.019531 86.554688 62.296875 86.808594 61.210938 C 86.882812 60.898438 86.980469 60.347656 87.039062 59.929688 C 87.070312 59.714844 87.101562 59.492188 87.113281 59.441406 C 87.136719 59.335938 87.28125 59.136719 87.332031 59.140625 Z M 87.132812 65.980469 C 87.304688 65.980469 86.976562 66.417969 86.726562 66.523438 C 86.582031 66.585938 86.414062 66.597656 86.226562 66.558594 L 86.027344 66.515625 C 85.847656 66.476562 85.898438 66.355469 86.097656 66.355469 C 86.292969 66.355469 86.675781 66.226562 86.929688 66.078125 C 87.019531 66.023438 87.109375 65.980469 87.132812 65.980469 Z M 74.765625 67.105469 C 74.664062 67.097656 74.699219 67.230469 74.898438 67.625 C 75.972656 69.773438 77.980469 72.101562 79.894531 73.421875 C 80.21875 73.644531 80.484375 73.6875 80.347656 73.496094 C 80.328125 73.46875 80.097656 73.296875 79.835938 73.109375 C 79.207031 72.664062 78.882812 72.390625 78.273438 71.800781 C 77.09375 70.660156 75.90625 69.085938 75.164062 67.679688 C 74.984375 67.339844 74.835938 67.117188 74.789062 67.109375 C 74.78125 67.105469 74.773438 67.105469 74.765625 67.105469 Z M 73.589844 73.09375 C 73.554688 73.097656 73.542969 73.117188 73.542969 73.152344 C 73.542969 73.203125 74.273438 73.574219 75.046875 73.914062 C 75.359375 74.050781 75.757812 74.230469 75.9375 74.316406 C 76.117188 74.402344 76.484375 74.546875 76.753906 74.644531 C 77.25 74.820312 77.519531 74.855469 77.519531 74.738281 C 77.519531 74.726562 77.5 74.707031 77.460938 74.683594 L 77.457031 74.683594 C 77.441406 74.667969 77.417969 74.65625 77.394531 74.652344 C 77.292969 74.605469 77.140625 74.546875 76.9375 74.476562 C 76.277344 74.253906 75.183594 73.800781 74.257812 73.359375 C 73.851562 73.164062 73.664062 73.089844 73.589844 73.09375 Z M 73.589844 73.09375 "/></g><g style="fill:#000000;fill-opacity:1;"><g transform="translate(85.894611, 45.344932)"><path style="stroke:none" d="M 0.640625 0 L 0.640625 -4.265625 L 2.265625 -4.265625 C 2.523438 -4.265625 2.742188 -4.222656 2.921875 -4.140625 C 3.109375 -4.054688 3.25 -3.9375 3.34375 -3.78125 C 3.4375 -3.625 3.484375 -3.4375 3.484375 -3.21875 C 3.484375 -3.039062 3.429688 -2.875 3.328125 -2.71875 C 3.222656 -2.570312 3.078125 -2.457031 2.890625 -2.375 L 2.890625 -2.3125 C 3.179688 -2.238281 3.398438 -2.109375 3.546875 -1.921875 C 3.691406 -1.742188 3.765625 -1.515625 3.765625 -1.234375 C 3.765625 -0.835938 3.644531 -0.53125 3.40625 -0.3125 C 3.175781 -0.101562 2.832031 0 2.375 0 Z M 2.234375 -2.46875 C 2.472656 -2.46875 2.65625 -2.53125 2.78125 -2.65625 C 2.914062 -2.78125 2.984375 -2.953125 2.984375 -3.171875 C 2.984375 -3.390625 2.921875 -3.554688 2.796875 -3.671875 C 2.671875 -3.785156 2.484375 -3.84375 2.234375 -3.84375 L 1.140625 -3.84375 L 1.140625 -2.46875 Z M 2.34375 -0.40625 C 2.945312 -0.40625 3.25 -0.679688 3.25 -1.234375 C 3.25 -1.785156 2.945312 -2.0625 2.34375 -2.0625 L 1.140625 -2.0625 L 1.140625 -0.40625 Z M 2.34375 -0.40625 "/></g><g transform="translate(89.994798, 45.344932)"><path style="stroke:none" d="M 1.59375 0.0625 C 1.226562 0.0625 0.957031 -0.03125 0.78125 -0.21875 C 0.601562 -0.414062 0.515625 -0.703125 0.515625 -1.078125 L 0.515625 -3.21875 L 0.984375 -3.21875 L 0.984375 -1.078125 C 0.984375 -0.597656 1.210938 -0.359375 1.671875 -0.359375 C 1.960938 -0.359375 2.191406 -0.453125 2.359375 -0.640625 C 2.523438 -0.828125 2.609375 -1.132812 2.609375 -1.5625 L 2.609375 -3.21875 L 3.09375 -3.21875 L 3.09375 0 L 2.640625 0 L 2.640625 -0.5 L 2.578125 -0.515625 C 2.472656 -0.316406 2.34375 -0.171875 2.1875 -0.078125 C 2.03125 0.015625 1.832031 0.0625 1.59375 0.0625 Z M 1.59375 0.0625 "/></g><g transform="translate(93.646207, 45.344932)"><path style="stroke:none" d="M 0.640625 1.359375 C 0.535156 1.359375 0.4375 1.347656 0.34375 1.328125 C 0.25 1.316406 0.164062 1.296875 0.09375 1.265625 L 0.1875 0.890625 L 0.234375 0.859375 C 0.285156 0.890625 0.34375 0.910156 0.40625 0.921875 C 0.476562 0.941406 0.550781 0.953125 0.625 0.953125 C 0.757812 0.953125 0.867188 0.929688 0.953125 0.890625 C 1.035156 0.859375 1.109375 0.800781 1.171875 0.71875 C 1.234375 0.644531 1.289062 0.535156 1.34375 0.390625 L 1.453125 0.078125 L 0.15625 -3.21875 L 0.671875 -3.21875 L 1.6875 -0.59375 L 1.75 -0.59375 L 2.71875 -3.21875 L 3.203125 -3.21875 L 1.765625 0.5 C 1.691406 0.707031 1.601562 0.875 1.5 1 C 1.394531 1.125 1.273438 1.210938 1.140625 1.265625 C 1.003906 1.328125 0.835938 1.359375 0.640625 1.359375 Z M 0.640625 1.359375 "/></g></g><g style="fill:#000000;fill-opacity:1;"><g transform="translate(97.038259, 45.344932)"><path style="stroke:none" d=""/></g><g transform="translate(98.501155, 45.344932)"><path style="stroke:none" d=""/></g></g><g style="fill:#000000;fill-opacity:1;"><g transform="translate(99.967935, 45.344932)"><path style="stroke:none" d="M 0.296875 0 L 0.296875 -0.40625 L 1.46875 -0.40625 L 1.46875 -3.671875 L 1.40625 -3.6875 C 1.207031 -3.59375 1.035156 -3.519531 0.890625 -3.46875 C 0.753906 -3.425781 0.578125 -3.378906 0.359375 -3.328125 L 0.359375 -3.796875 C 0.578125 -3.835938 0.789062 -3.894531 1 -3.96875 C 1.21875 -4.050781 1.414062 -4.148438 1.59375 -4.265625 L 1.953125 -4.265625 L 1.953125 -0.40625 L 3 -0.40625 L 3 0 Z M 0.296875 0 "/></g><g transform="translate(103.144341, 45.344932)"><path style="stroke:none" d=""/></g><g transform="translate(104.607237, 45.344932)"><path style="stroke:none" d="M 1.96875 -1.859375 L 0.296875 -1.859375 L 0.296875 -2.28125 L 1.96875 -2.28125 Z M 1.96875 -1.859375 "/></g><g transform="translate(106.868605, 45.344932)"><path style="stroke:none" d=""/></g><g transform="translate(108.3315, 45.344932)"><path style="stroke:none" d="M 1.6875 0.0625 C 1.269531 0.0625 0.941406 -0.03125 0.703125 -0.21875 C 0.460938 -0.40625 0.304688 -0.664062 0.234375 -1 L 0.609375 -1.15625 L 0.671875 -1.15625 C 0.742188 -0.894531 0.859375 -0.703125 1.015625 -0.578125 C 1.171875 -0.453125 1.394531 -0.390625 1.6875 -0.390625 C 1.988281 -0.390625 2.21875 -0.457031 2.375 -0.59375 C 2.53125 -0.726562 2.609375 -0.929688 2.609375 -1.203125 C 2.609375 -1.460938 2.523438 -1.660156 2.359375 -1.796875 C 2.203125 -1.941406 1.953125 -2.015625 1.609375 -2.015625 L 1.15625 -2.015625 L 1.15625 -2.421875 L 1.5625 -2.421875 C 1.832031 -2.421875 2.046875 -2.488281 2.203125 -2.625 C 2.359375 -2.757812 2.4375 -2.945312 2.4375 -3.1875 C 2.4375 -3.414062 2.367188 -3.585938 2.234375 -3.703125 C 2.097656 -3.828125 1.90625 -3.890625 1.65625 -3.890625 C 1.226562 -3.890625 0.925781 -3.71875 0.75 -3.375 L 0.671875 -3.359375 L 0.390625 -3.671875 C 0.503906 -3.859375 0.671875 -4.015625 0.890625 -4.140625 C 1.109375 -4.265625 1.363281 -4.328125 1.65625 -4.328125 C 1.925781 -4.328125 2.15625 -4.28125 2.34375 -4.1875 C 2.539062 -4.101562 2.6875 -3.984375 2.78125 -3.828125 C 2.882812 -3.671875 2.9375 -3.484375 2.9375 -3.265625 C 2.9375 -3.046875 2.875 -2.859375 2.75 -2.703125 C 2.632812 -2.546875 2.476562 -2.421875 2.28125 -2.328125 L 2.28125 -2.265625 C 2.5625 -2.203125 2.769531 -2.078125 2.90625 -1.890625 C 3.050781 -1.703125 3.125 -1.472656 3.125 -1.203125 C 3.125 -0.796875 3.003906 -0.484375 2.765625 -0.265625 C 2.523438 -0.046875 2.164062 0.0625 1.6875 0.0625 Z M 1.6875 0.0625 "/></g></g><g style="fill:#000000;fill-opacity:1;"><g transform="translate(111.795434, 45.344932)"><path style="stroke:none" d=""/></g><g transform="translate(113.20296, 45.344932)"><path style="stroke:none" d="M 1.890625 0.0625 C 1.597656 0.0625 1.332031 0.0234375 1.09375 -0.046875 C 0.863281 -0.117188 0.671875 -0.210938 0.515625 -0.328125 C 0.367188 -0.453125 0.253906 -0.582031 0.171875 -0.71875 L 0.640625 -1.296875 L 0.703125 -1.296875 C 0.835938 -1.097656 1.003906 -0.941406 1.203125 -0.828125 C 1.398438 -0.722656 1.628906 -0.671875 1.890625 -0.671875 C 2.117188 -0.671875 2.289062 -0.71875 2.40625 -0.8125 C 2.519531 -0.90625 2.578125 -1.035156 2.578125 -1.203125 C 2.578125 -1.304688 2.554688 -1.390625 2.515625 -1.453125 C 2.472656 -1.523438 2.410156 -1.582031 2.328125 -1.625 C 2.242188 -1.675781 2.128906 -1.71875 1.984375 -1.75 L 1.4375 -1.875 C 1.050781 -1.96875 0.765625 -2.113281 0.578125 -2.3125 C 0.390625 -2.519531 0.296875 -2.785156 0.296875 -3.109375 C 0.296875 -3.347656 0.351562 -3.554688 0.46875 -3.734375 C 0.59375 -3.921875 0.769531 -4.066406 1 -4.171875 C 1.238281 -4.273438 1.515625 -4.328125 1.828125 -4.328125 C 2.160156 -4.328125 2.441406 -4.28125 2.671875 -4.1875 C 2.910156 -4.101562 3.109375 -3.972656 3.265625 -3.796875 L 2.859375 -3.21875 L 2.78125 -3.21875 C 2.65625 -3.34375 2.515625 -3.4375 2.359375 -3.5 C 2.210938 -3.570312 2.035156 -3.609375 1.828125 -3.609375 C 1.597656 -3.609375 1.421875 -3.566406 1.296875 -3.484375 C 1.179688 -3.398438 1.125 -3.285156 1.125 -3.140625 C 1.125 -3.003906 1.164062 -2.894531 1.25 -2.8125 C 1.332031 -2.738281 1.476562 -2.679688 1.6875 -2.640625 L 2.25 -2.515625 C 2.664062 -2.429688 2.96875 -2.285156 3.15625 -2.078125 C 3.34375 -1.867188 3.4375 -1.59375 3.4375 -1.25 C 3.4375 -0.988281 3.378906 -0.757812 3.265625 -0.5625 C 3.148438 -0.363281 2.972656 -0.207031 2.734375 -0.09375 C 2.503906 0.0078125 2.222656 0.0625 1.890625 0.0625 Z M 1.890625 0.0625 "/></g><g transform="translate(116.863113, 45.344932)"><path style="stroke:none" d="M 0.46875 0 L 0.46875 -4.5 L 1.265625 -4.5 L 1.265625 -2.796875 L 1.328125 -2.78125 C 1.441406 -2.9375 1.570312 -3.054688 1.71875 -3.140625 C 1.875 -3.234375 2.0625 -3.28125 2.28125 -3.28125 C 3 -3.28125 3.359375 -2.875 3.359375 -2.0625 L 3.359375 0 L 2.546875 0 L 2.546875 -1.96875 C 2.546875 -2.1875 2.5 -2.34375 2.40625 -2.4375 C 2.320312 -2.539062 2.1875 -2.59375 2 -2.59375 C 1.78125 -2.59375 1.601562 -2.515625 1.46875 -2.359375 C 1.332031 -2.210938 1.265625 -1.984375 1.265625 -1.671875 L 1.265625 0 Z M 0.46875 0 "/></g><g transform="translate(120.628174, 45.344932)"><path style="stroke:none" d="M 0.859375 -3.59375 C 0.710938 -3.59375 0.59375 -3.632812 0.5 -3.71875 C 0.414062 -3.8125 0.375 -3.929688 0.375 -4.078125 C 0.375 -4.210938 0.414062 -4.320312 0.5 -4.40625 C 0.59375 -4.5 0.710938 -4.546875 0.859375 -4.546875 C 0.960938 -4.546875 1.050781 -4.523438 1.125 -4.484375 C 1.195312 -4.441406 1.253906 -4.382812 1.296875 -4.3125 C 1.335938 -4.25 1.359375 -4.171875 1.359375 -4.078125 C 1.359375 -3.984375 1.335938 -3.898438 1.296875 -3.828125 C 1.253906 -3.753906 1.195312 -3.695312 1.125 -3.65625 C 1.050781 -3.613281 0.960938 -3.59375 0.859375 -3.59375 Z M 0.46875 0 L 0.46875 -3.21875 L 1.265625 -3.21875 L 1.265625 0 Z M 0.46875 0 "/></g><g transform="translate(122.359169, 45.344932)"><path style="stroke:none" d="M 0.46875 0 L 0.46875 -3.21875 L 1.25 -3.21875 L 1.25 -2.734375 L 1.3125 -2.71875 C 1.382812 -2.90625 1.484375 -3.039062 1.609375 -3.125 C 1.734375 -3.207031 1.890625 -3.25 2.078125 -3.25 C 2.253906 -3.25 2.390625 -3.21875 2.484375 -3.15625 L 2.359375 -2.453125 L 2.296875 -2.4375 C 2.242188 -2.457031 2.191406 -2.472656 2.140625 -2.484375 C 2.085938 -2.492188 2.03125 -2.5 1.96875 -2.5 C 1.738281 -2.5 1.5625 -2.421875 1.4375 -2.265625 C 1.320312 -2.109375 1.265625 -1.851562 1.265625 -1.5 L 1.265625 0 Z M 0.46875 0 "/></g></g><g style="fill:#000000;fill-opacity:1;"><g transform="translate(124.920693, 45.344932)"><path style="stroke:none" d="M 2.21875 -0.765625 L 2.421875 -0.171875 C 2.335938 -0.0976562 2.226562 -0.0390625 2.09375 0 C 1.96875 0.0390625 1.820312 0.0625 1.65625 0.0625 C 1.300781 0.0625 1.03125 -0.03125 0.84375 -0.21875 C 0.664062 -0.40625 0.578125 -0.679688 0.578125 -1.046875 L 0.578125 -2.578125 L 0.09375 -2.578125 L 0.09375 -3.21875 L 0.578125 -3.21875 L 0.578125 -3.84375 L 1.390625 -3.96875 L 1.390625 -3.21875 L 2.3125 -3.21875 L 2.3125 -2.578125 L 1.390625 -2.578125 L 1.390625 -1.109375 C 1.390625 -0.953125 1.421875 -0.835938 1.484375 -0.765625 C 1.554688 -0.691406 1.65625 -0.65625 1.78125 -0.65625 C 1.925781 -0.65625 2.050781 -0.691406 2.15625 -0.765625 Z M 2.21875 -0.765625 "/></g></g><g style="fill:#000000;fill-opacity:1;"><g transform="translate(90.244192, 35.819863)"><path style="stroke:none" d="M 2.203125 0.078125 C 1.859375 0.078125 1.550781 0.0351562 1.28125 -0.046875 C 1.007812 -0.140625 0.785156 -0.253906 0.609375 -0.390625 C 0.429688 -0.523438 0.296875 -0.675781 0.203125 -0.84375 L 0.734375 -1.5 L 0.828125 -1.5 C 0.972656 -1.28125 1.160156 -1.101562 1.390625 -0.96875 C 1.617188 -0.84375 1.890625 -0.78125 2.203125 -0.78125 C 2.460938 -0.78125 2.660156 -0.832031 2.796875 -0.9375 C 2.929688 -1.050781 3 -1.207031 3 -1.40625 C 3 -1.519531 2.972656 -1.613281 2.921875 -1.6875 C 2.878906 -1.769531 2.804688 -1.835938 2.703125 -1.890625 C 2.609375 -1.953125 2.476562 -2.003906 2.3125 -2.046875 L 1.671875 -2.1875 C 1.222656 -2.289062 0.890625 -2.460938 0.671875 -2.703125 C 0.453125 -2.941406 0.34375 -3.25 0.34375 -3.625 C 0.34375 -3.90625 0.410156 -4.148438 0.546875 -4.359375 C 0.691406 -4.578125 0.898438 -4.742188 1.171875 -4.859375 C 1.441406 -4.972656 1.765625 -5.03125 2.140625 -5.03125 C 2.515625 -5.03125 2.835938 -4.976562 3.109375 -4.875 C 3.390625 -4.78125 3.625 -4.628906 3.8125 -4.421875 L 3.328125 -3.75 L 3.234375 -3.75 C 3.097656 -3.894531 2.9375 -4.003906 2.75 -4.078125 C 2.570312 -4.160156 2.367188 -4.203125 2.140625 -4.203125 C 1.867188 -4.203125 1.660156 -4.148438 1.515625 -4.046875 C 1.378906 -3.953125 1.3125 -3.820312 1.3125 -3.65625 C 1.3125 -3.5 1.359375 -3.375 1.453125 -3.28125 C 1.554688 -3.1875 1.726562 -3.113281 1.96875 -3.0625 L 2.625 -2.9375 C 3.101562 -2.832031 3.453125 -2.65625 3.671875 -2.40625 C 3.890625 -2.164062 4 -1.851562 4 -1.46875 C 4 -1.15625 3.929688 -0.882812 3.796875 -0.65625 C 3.660156 -0.425781 3.457031 -0.242188 3.1875 -0.109375 C 2.914062 0.015625 2.585938 0.078125 2.203125 0.078125 Z M 2.203125 0.078125 "/></g><g transform="translate(94.507968, 35.819863)"><path style="stroke:none" d="M 1.453125 0.078125 C 1.210938 0.078125 1.003906 0.0351562 0.828125 -0.046875 C 0.660156 -0.140625 0.523438 -0.269531 0.421875 -0.4375 C 0.328125 -0.613281 0.28125 -0.820312 0.28125 -1.0625 C 0.28125 -1.289062 0.328125 -1.476562 0.421875 -1.625 C 0.523438 -1.769531 0.675781 -1.890625 0.875 -1.984375 C 1.070312 -2.085938 1.332031 -2.164062 1.65625 -2.21875 C 1.875 -2.25 2.039062 -2.285156 2.15625 -2.328125 C 2.269531 -2.378906 2.347656 -2.429688 2.390625 -2.484375 C 2.429688 -2.535156 2.453125 -2.601562 2.453125 -2.6875 C 2.453125 -2.8125 2.410156 -2.90625 2.328125 -2.96875 C 2.242188 -3.03125 2.109375 -3.0625 1.921875 -3.0625 C 1.710938 -3.0625 1.507812 -3.015625 1.3125 -2.921875 C 1.125 -2.828125 0.960938 -2.703125 0.828125 -2.546875 L 0.765625 -2.546875 L 0.375 -3.140625 C 0.5625 -3.359375 0.789062 -3.523438 1.0625 -3.640625 C 1.34375 -3.753906 1.644531 -3.8125 1.96875 -3.8125 C 2.457031 -3.8125 2.8125 -3.707031 3.03125 -3.5 C 3.257812 -3.289062 3.375 -2.992188 3.375 -2.609375 L 3.375 -0.984375 C 3.375 -0.804688 3.445312 -0.71875 3.59375 -0.71875 C 3.644531 -0.71875 3.703125 -0.726562 3.765625 -0.75 L 3.8125 -0.75 L 3.875 -0.09375 C 3.820312 -0.0507812 3.75 -0.0195312 3.65625 0 C 3.5625 0.0195312 3.457031 0.03125 3.34375 0.03125 C 3.125 0.03125 2.953125 -0.0078125 2.828125 -0.09375 C 2.703125 -0.1875 2.613281 -0.320312 2.5625 -0.5 L 2.484375 -0.515625 C 2.296875 -0.117188 1.953125 0.078125 1.453125 0.078125 Z M 1.765625 -0.625 C 1.972656 -0.625 2.140625 -0.695312 2.265625 -0.84375 C 2.398438 -0.988281 2.46875 -1.191406 2.46875 -1.453125 L 2.46875 -1.84375 L 2.40625 -1.859375 C 2.351562 -1.804688 2.28125 -1.765625 2.1875 -1.734375 C 2.09375 -1.703125 1.960938 -1.675781 1.796875 -1.65625 C 1.585938 -1.613281 1.4375 -1.550781 1.34375 -1.46875 C 1.257812 -1.382812 1.21875 -1.269531 1.21875 -1.125 C 1.21875 -0.957031 1.265625 -0.832031 1.359375 -0.75 C 1.453125 -0.664062 1.585938 -0.625 1.765625 -0.625 Z M 1.765625 -0.625 "/></g></g><g style="fill:#000000;fill-opacity:1;"><g transform="translate(98.384744, 35.819863)"><path style="stroke:none" d="M 2.578125 0 L 1.453125 0 L 0.078125 -3.75 L 1.0625 -3.75 L 1.984375 -1.078125 L 2.0625 -1.078125 L 3 -3.75 L 3.953125 -3.75 Z M 2.578125 0 "/></g></g><g style="fill:#000000;fill-opacity:1;"><g transform="translate(102.3396, 35.819863)"><path style="stroke:none" d="M 3.703125 -1.65625 L 1.296875 -1.65625 C 1.316406 -1.332031 1.40625 -1.09375 1.5625 -0.9375 C 1.726562 -0.789062 1.945312 -0.71875 2.21875 -0.71875 C 2.4375 -0.71875 2.609375 -0.757812 2.734375 -0.84375 C 2.867188 -0.925781 2.976562 -1.050781 3.0625 -1.21875 L 3.140625 -1.21875 L 3.765625 -0.8125 C 3.640625 -0.550781 3.453125 -0.335938 3.203125 -0.171875 C 2.960938 -0.00390625 2.632812 0.078125 2.21875 0.078125 C 1.832031 0.078125 1.5 0.00390625 1.21875 -0.140625 C 0.9375 -0.296875 0.71875 -0.519531 0.5625 -0.8125 C 0.414062 -1.101562 0.34375 -1.457031 0.34375 -1.875 C 0.34375 -2.300781 0.421875 -2.660156 0.578125 -2.953125 C 0.734375 -3.242188 0.945312 -3.457031 1.21875 -3.59375 C 1.5 -3.738281 1.8125 -3.8125 2.15625 -3.8125 C 2.6875 -3.8125 3.09375 -3.671875 3.375 -3.390625 C 3.65625 -3.109375 3.796875 -2.695312 3.796875 -2.15625 C 3.796875 -1.957031 3.785156 -1.804688 3.765625 -1.703125 Z M 2.890625 -2.265625 C 2.878906 -2.554688 2.8125 -2.765625 2.6875 -2.890625 C 2.570312 -3.023438 2.394531 -3.09375 2.15625 -3.09375 C 1.675781 -3.09375 1.394531 -2.816406 1.3125 -2.265625 Z M 2.890625 -2.265625 "/></g><g transform="translate(106.409876, 35.819863)"><path style="stroke:none" d=""/></g></g><g style="fill:#c60d0d;fill-opacity:1;"><g transform="translate(108.05066, 35.819863)"><path style="stroke:none" d="M 0.234375 -0.390625 C 0.234375 -0.660156 0.265625 -0.890625 0.328125 -1.078125 C 0.390625 -1.273438 0.488281 -1.445312 0.625 -1.59375 C 0.757812 -1.75 0.953125 -1.914062 1.203125 -2.09375 L 1.859375 -2.578125 C 2.046875 -2.710938 2.1875 -2.828125 2.28125 -2.921875 C 2.382812 -3.015625 2.460938 -3.113281 2.515625 -3.21875 C 2.566406 -3.320312 2.59375 -3.441406 2.59375 -3.578125 C 2.59375 -3.773438 2.53125 -3.925781 2.40625 -4.03125 C 2.28125 -4.144531 2.097656 -4.203125 1.859375 -4.203125 C 1.617188 -4.203125 1.40625 -4.144531 1.21875 -4.03125 C 1.039062 -3.914062 0.894531 -3.765625 0.78125 -3.578125 L 0.703125 -3.5625 L 0.171875 -4.15625 C 0.347656 -4.425781 0.578125 -4.640625 0.859375 -4.796875 C 1.140625 -4.953125 1.484375 -5.03125 1.890625 -5.03125 C 2.265625 -5.03125 2.578125 -4.96875 2.828125 -4.84375 C 3.078125 -4.726562 3.257812 -4.5625 3.375 -4.34375 C 3.5 -4.132812 3.5625 -3.894531 3.5625 -3.625 C 3.5625 -3.382812 3.507812 -3.164062 3.40625 -2.96875 C 3.3125 -2.78125 3.175781 -2.601562 3 -2.4375 C 2.832031 -2.269531 2.613281 -2.09375 2.34375 -1.90625 L 1.75 -1.5 C 1.570312 -1.363281 1.445312 -1.25 1.375 -1.15625 C 1.3125 -1.0625 1.28125 -0.953125 1.28125 -0.828125 L 3.515625 -0.828125 L 3.515625 0 L 0.234375 0 Z M 0.234375 -0.390625 "/></g><g transform="translate(111.924042, 35.819863)"><path style="stroke:none" d="M 2.421875 0.078125 C 2.015625 0.078125 1.660156 -0.0078125 1.359375 -0.1875 C 1.066406 -0.375 0.835938 -0.65625 0.671875 -1.03125 C 0.503906 -1.414062 0.421875 -1.898438 0.421875 -2.484375 C 0.421875 -3.066406 0.503906 -3.546875 0.671875 -3.921875 C 0.835938 -4.304688 1.066406 -4.585938 1.359375 -4.765625 C 1.660156 -4.941406 2.015625 -5.03125 2.421875 -5.03125 C 2.828125 -5.03125 3.179688 -4.941406 3.484375 -4.765625 C 3.785156 -4.585938 4.019531 -4.304688 4.1875 -3.921875 C 4.351562 -3.546875 4.4375 -3.066406 4.4375 -2.484375 C 4.4375 -1.898438 4.351562 -1.414062 4.1875 -1.03125 C 4.019531 -0.65625 3.785156 -0.375 3.484375 -0.1875 C 3.179688 -0.0078125 2.828125 0.078125 2.421875 0.078125 Z M 2.421875 -0.765625 C 2.640625 -0.765625 2.820312 -0.816406 2.96875 -0.921875 C 3.125 -1.023438 3.242188 -1.203125 3.328125 -1.453125 C 3.410156 -1.710938 3.453125 -2.054688 3.453125 -2.484375 C 3.453125 -2.910156 3.410156 -3.25 3.328125 -3.5 C 3.242188 -3.75 3.125 -3.925781 2.96875 -4.03125 C 2.820312 -4.144531 2.640625 -4.203125 2.421875 -4.203125 C 2.203125 -4.203125 2.015625 -4.144531 1.859375 -4.03125 C 1.710938 -3.925781 1.597656 -3.75 1.515625 -3.5 C 1.441406 -3.25 1.40625 -2.910156 1.40625 -2.484375 C 1.40625 -2.054688 1.441406 -1.710938 1.515625 -1.453125 C 1.597656 -1.203125 1.710938 -1.023438 1.859375 -0.921875 C 2.015625 -0.816406 2.203125 -0.765625 2.421875 -0.765625 Z M 2.421875 -0.765625 "/></g><g transform="translate(116.775105, 35.819863)"><path style="stroke:none" d="M 1.421875 -2.265625 C 1.054688 -2.265625 0.769531 -2.378906 0.5625 -2.609375 C 0.351562 -2.835938 0.25 -3.1875 0.25 -3.65625 C 0.25 -4.125 0.351562 -4.46875 0.5625 -4.6875 C 0.769531 -4.914062 1.054688 -5.03125 1.421875 -5.03125 C 1.785156 -5.03125 2.070312 -4.914062 2.28125 -4.6875 C 2.488281 -4.457031 2.59375 -4.113281 2.59375 -3.65625 C 2.59375 -3.1875 2.488281 -2.835938 2.28125 -2.609375 C 2.070312 -2.378906 1.785156 -2.265625 1.421875 -2.265625 Z M 1.765625 0 L 0.9375 0 L 0.921875 -0.078125 L 4.25 -4.96875 L 5.078125 -4.96875 L 5.078125 -4.890625 Z M 1.421875 -2.90625 C 1.554688 -2.90625 1.65625 -2.957031 1.71875 -3.0625 C 1.789062 -3.175781 1.828125 -3.375 1.828125 -3.65625 C 1.828125 -3.925781 1.789062 -4.113281 1.71875 -4.21875 C 1.65625 -4.332031 1.554688 -4.390625 1.421875 -4.390625 C 1.328125 -4.390625 1.25 -4.367188 1.1875 -4.328125 C 1.125 -4.285156 1.078125 -4.207031 1.046875 -4.09375 C 1.015625 -3.988281 1 -3.84375 1 -3.65625 C 1 -3.46875 1.015625 -3.316406 1.046875 -3.203125 C 1.078125 -3.097656 1.125 -3.019531 1.1875 -2.96875 C 1.25 -2.925781 1.328125 -2.90625 1.421875 -2.90625 Z M 4.609375 0.078125 C 4.242188 0.078125 3.953125 -0.0351562 3.734375 -0.265625 C 3.523438 -0.492188 3.421875 -0.84375 3.421875 -1.3125 C 3.421875 -1.78125 3.523438 -2.128906 3.734375 -2.359375 C 3.953125 -2.585938 4.242188 -2.703125 4.609375 -2.703125 C 4.960938 -2.703125 5.242188 -2.585938 5.453125 -2.359375 C 5.660156 -2.128906 5.765625 -1.78125 5.765625 -1.3125 C 5.765625 -0.84375 5.660156 -0.492188 5.453125 -0.265625 C 5.242188 -0.0351562 4.960938 0.078125 4.609375 0.078125 Z M 4.609375 -0.578125 C 4.703125 -0.578125 4.773438 -0.597656 4.828125 -0.640625 C 4.890625 -0.679688 4.9375 -0.753906 4.96875 -0.859375 C 5 -0.972656 5.015625 -1.125 5.015625 -1.3125 C 5.015625 -1.5 5 -1.644531 4.96875 -1.75 C 4.9375 -1.863281 4.890625 -1.941406 4.828125 -1.984375 C 4.773438 -2.023438 4.703125 -2.046875 4.609375 -2.046875 C 4.515625 -2.046875 4.4375 -2.023438 4.375 -1.984375 C 4.3125 -1.941406 4.265625 -1.863281 4.234375 -1.75 C 4.203125 -1.644531 4.1875 -1.5 4.1875 -1.3125 C 4.1875 -1.125 4.203125 -0.972656 4.234375 -0.859375 C 4.265625 -0.753906 4.3125 -0.679688 4.375 -0.640625 C 4.4375 -0.597656 4.515625 -0.578125 4.609375 -0.578125 Z M 4.609375 -0.578125 "/></g></g></g></svg>