<svg width="132" height="120" viewBox="0 0 132 120" fill="none" xmlns="http://www.w3.org/2000/svg">
    <g id="Value">
        <path id="Ellipse 8"
            d="M125.5 60C125.5 92.8609 98.8609 119.5 66 119.5C33.1391 119.5 6.5 92.8609 6.5 60C6.5 27.1391 33.1391 0.5 66 0.5C98.8609 0.5 125.5 27.1391 125.5 60Z"
            fill="#F0EDFE" stroke="#DDD1FF" />
        <g id="Group 18285">
            <g id="Group 18281">
                <g id="Vector 2">
                    <path d="M86 78.5165V41.8261L109.349 35L131 41.8261V78.5165L109.349 85.7692L86 78.5165Z"
                        fill="#BCEFFF" />
                    <path
                        d="M86 41.8261V78.5165L109.349 85.7692M86 41.8261L109.349 50.3588M86 41.8261L109.349 35L131 41.8261M109.349 50.3588V85.7692M109.349 50.3588L131 41.8261M109.349 85.7692L131 78.5165V41.8261"
                        stroke="#202223" stroke-width="2" stroke-linejoin="round" />
                </g>
            </g>
            <g id="Group 18282">
                <g id="Vector 2_2">
                    <path d="M1 78.5165V41.8261L24.3491 35L46 41.8261V78.5165L24.3491 85.7692L1 78.5165Z"
                        fill="#FFBCBC" />
                    <path
                        d="M1 41.8261V78.5165L24.3491 85.7692M1 41.8261L24.3491 50.3588M1 41.8261L24.3491 35L46 41.8261M24.3491 50.3588V85.7692M24.3491 50.3588L46 41.8261M24.3491 85.7692L46 78.5165V41.8261"
                        stroke="#202223" stroke-width="2" stroke-linejoin="round" />
                </g>
            </g>
        </g>
        <path id="+"
            d="M63.303 51.697V57.303H57.697C56.2075 57.303 55 58.5105 55 60C55 61.4895 56.2075 62.697 57.697 62.697H63.303V68.303C63.303 69.7925 64.5105 71 66 71C67.4895 71 68.697 69.7925 68.697 68.303V62.697H74.303C75.7925 62.697 77 61.4895 77 60C77 58.5105 75.7925 57.303 74.303 57.303H68.697V51.697C68.697 50.2075 67.4895 49 66 49C64.5105 49 63.303 50.2075 63.303 51.697Z"
            fill="white" stroke="black" stroke-width="2" />
    </g>
</svg>